<!-- icon666.com - MILLIONS vector ICONS FREE --><svg viewBox="0 0 64 64" xmlns="http://www.w3.org/2000/svg"><g id="_09_Sun" data-name="09 Sun"><g><path d="m63.475 37.286a6.032 6.032 0 0 1 .053-10.6 1 1 0 0 0 -.426-1.843 6.031 6.031 0 0 1 -4.065-9.748 1 1 0 0 0 -1.043-1.609 6.03 6.03 0 0 1 -7.485-7.45 1 1 0 0 0 -1.58-1.089 5.955 5.955 0 0 1 -6.084.869 5.95 5.95 0 0 1 -3.686-4.916c0-.037-.011-.077-.018-.113a1 1 0 0 0 -1.862-.253 5.953 5.953 0 0 1 -5.279 3.119 5.938 5.938 0 0 1 -5.271-3.1.99.99 0 0 0 -1.02-.544 1 1 0 0 0 -.855.778c-.007.035-.013.071-.017.108a5.95 5.95 0 0 1 -3.686 4.916 5.972 5.972 0 0 1 -6.114-.892 1 1 0 0 0 -1.555 1.093 5.953 5.953 0 0 1 -1.528 5.944 5.932 5.932 0 0 1 -5.885 1.544 1 1 0 0 0 -1.128 1.565 5.953 5.953 0 0 1 .869 6.083 5.949 5.949 0 0 1 -4.91 3.689 1 1 0 0 0 -.377 1.875 5.951 5.951 0 0 1 3.128 5.288 5.98 5.98 0 0 1 -3.183 5.317 1 1 0 0 0 .426 1.843 5.953 5.953 0 0 1 4.916 3.687 5.941 5.941 0 0 1 -.851 6.061 1 1 0 0 0 1.041 1.61 6.03 6.03 0 0 1 7.485 7.449 1 1 0 0 0 1.58 1.09 6.03 6.03 0 0 1 9.77 4.046c0 .037.011.077.018.113a1 1 0 0 0 .837.771.951.951 0 0 0 .14.01 1.006 1.006 0 0 0 .879-.521 6.03 6.03 0 0 1 10.558-.03.991.991 0 0 0 1.018.543 1 1 0 0 0 .855-.777c.007-.036.013-.072.017-.109a6.031 6.031 0 0 1 9.8-4.023 1 1 0 0 0 1.555-1.094 6.033 6.033 0 0 1 7.413-7.49 1 1 0 0 0 1.128-1.566 6.03 6.03 0 0 1 4.047-9.769 1 1 0 0 0 .377-1.875z" fill="#ffc684"></path><path d="m58.556 36.46a5.089 5.089 0 0 1 .046-8.948.845.845 0 0 0 -.361-1.555 5.089 5.089 0 0 1 -3.429-8.225.844.844 0 0 0 -.88-1.358 5.088 5.088 0 0 1 -6.316-6.285.845.845 0 0 0 -1.333-.92 5.087 5.087 0 0 1 -8.243-3.414c0-.031-.009-.065-.015-.095a.844.844 0 0 0 -1.571-.21 5.089 5.089 0 0 1 -8.9.016.835.835 0 0 0 -.858-.459.846.846 0 0 0 -.721.657.691.691 0 0 0 -.015.091 5.088 5.088 0 0 1 -8.269 3.4.844.844 0 0 0 -1.311.923 5.091 5.091 0 0 1 -6.255 6.32.844.844 0 0 0 -.952 1.321 5.088 5.088 0 0 1 -3.411 8.243.844.844 0 0 0 -.318 1.581 5.089 5.089 0 0 1 -.044 8.943.845.845 0 0 0 .36 1.555 5.089 5.089 0 0 1 3.429 8.225.844.844 0 0 0 .88 1.358 5.088 5.088 0 0 1 6.316 6.285.845.845 0 0 0 1.333.92 5.087 5.087 0 0 1 8.243 3.414c0 .031.009.065.015.095a.846.846 0 0 0 .707.651.933.933 0 0 0 .117.011.849.849 0 0 0 .742-.439 5.088 5.088 0 0 1 8.909-.025.837.837 0 0 0 .858.458.846.846 0 0 0 .721-.657.691.691 0 0 0 .015-.091 5.088 5.088 0 0 1 8.269-3.4.843.843 0 0 0 1.311-.923 5.092 5.092 0 0 1 6.255-6.32.844.844 0 0 0 .952-1.321 5.088 5.088 0 0 1 3.411-8.242.845.845 0 0 0 .318-1.582z" fill="#ffb357"></path><g fill="#ff3f3c"><circle cx="32" cy="32" r="15"></circle><path d="m44.552 16.2a1 1 0 0 1 -.6-.2 19.839 19.839 0 0 0 -23.906 0 1 1 0 1 1 -1.2-1.6 21.84 21.84 0 0 1 26.3 0 1 1 0 0 1 -.6 1.8z"></path><path d="m48.8 45.553a1 1 0 0 1 -.8-1.6 19.839 19.839 0 0 0 0-23.906 1 1 0 0 1 1.6-1.2 21.844 21.844 0 0 1 0 26.3 1 1 0 0 1 -.8.406z"></path><path d="m15.205 45.553a1 1 0 0 1 -.8-.4 21.844 21.844 0 0 1 0-26.3 1 1 0 0 1 1.6 1.2 19.839 19.839 0 0 0 0 23.906 1 1 0 0 1 -.8 1.6z"></path><path d="m32 54a21.785 21.785 0 0 1 -13.152-4.4 1 1 0 1 1 1.2-1.6 19.839 19.839 0 0 0 23.906 0 1 1 0 1 1 1.2 1.6 21.785 21.785 0 0 1 -13.154 4.4z"></path></g><path d="m47 32a14.986 14.986 0 0 1 -26.53 9.57 14.988 14.988 0 0 0 21.1-21.1 14.94 14.94 0 0 1 5.43 11.53z" fill="#ea2626"></path></g></g></svg>