<!-- icon666.com - MILLIONS vector ICONS FREE -->
<svg id="Layer_1" enable-background="new 0 0 512.002 512.002" viewBox="0 0 512.002 512.002" xmlns="http://www.w3.org/2000/svg">
<g>
<path d="m482.002 71.999h-66.001v-41.999c0-16.542-13.458-30-30-30h-260.001c-16.542 0-30 13.458-30 30v41.998h-66c-16.542 0-30 13.458-30 29.999v300.003c0 16.541 13.458 29.999 30 29.999h174.406l-16.077 60.003h-12.328c-13.204.468-13.289 19.496 0 20h160c13.205-.469 13.289-19.496 0-20h-12.328l-16.077-60.003h174.406c16.542 0 30-13.458 30-29.999v-300.002c0-16.541-13.458-29.999-30-29.999zm-366.001 8.001h68.5c13.037 0 24.159-8.359 28.286-20h183.213v210.001c0 5.514-4.486 9.999-10 9.999h-260c-5.514 0-10-4.485-10-9.999v-190.001zm9.999 220h260c16.542 0 30-13.457 30-29.999v-138.002h36.001v200h-392.001v-200h36.001v138.003c0 16.541 13.457 29.998 29.999 29.998zm0-280h260c5.514 0 10 4.486 10 10v10h-191.5c-5.523 0-10 4.478-10 10 0 5.514-4.486 10-10 10h-68.5v-30c.001-5.513 4.487-10 10-10zm176.968 472.001h-93.934l16.078-60.003h61.779zm189.034-90.001c0 5.514-4.486 9.999-10 9.999h-452.002c-5.514 0-10-4.485-10-9.999v-300.002c0-5.514 4.486-9.999 10-9.999h66.001v20h-46.001c-5.523 0-10 4.478-10 10v220c0 5.522 4.477 10 10 10h412.002c5.523 0 10-4.478 10-10v-220c0-5.522-4.477-10-10-10h-46.001v-20h66.001c5.514 0 10 4.485 10 9.999z" fill="currentColor"></path>
<path d="m421.001 371.999h-60c-13.234.483-13.262 19.506 0 20h60c5.523 0 10-4.478 10-10s-4.477-10-10-10z" fill="currentColor" ></path><path d="m153.5 195h35v25.001c0 5.522 4.477 10 10 10s10-4.478 10-10v-90c-.479-13.225-19.503-13.27-20 0v44.999h-24.049l4.009-44.094c.5-5.5-3.553-10.364-9.054-10.864-5.5-.517-10.364 3.553-10.864 9.054l-5 54.999c-.642 5.675 4.246 11.033 9.958 10.905z" fill="currentColor" ></path>
<path d="m256.001 230.001c17.92 0 32.5-14.579 32.5-32.5v-45.001c-1.628-43.043-63.369-43.055-65 0v45.001c0 17.921 14.58 32.5 32.5 32.5zm-12.5-77.501c0-6.892 5.608-12.5 12.5-12.499 6.892 0 12.5 5.607 12.5 12.499v45.001c-.621 16.545-24.369 16.57-25 0z" fill="currentColor" ></path>
<path d="m313.501 195h35v25.001c0 5.522 4.477 10 10 10s10-4.478 10-10v-90c-.479-13.225-19.503-13.27-20 0v44.999h-24.05l4.009-44.094c.5-5.5-3.553-10.364-9.054-10.864-5.497-.509-10.364 3.553-10.864 9.054l-5 54.999c-.641 5.675 4.247 11.033 9.959 10.905z" fill="currentColor" ></path>
</g>
</svg>