<svg xmlns="http://www.w3.org/2000/svg" version="1.1" xmlns:xlink="http://www.w3.org/1999/xlink" xmlns:svgjs="http://svgjs.dev/svgjs" width="1440" height="560" preserveAspectRatio="none" viewBox="0 0 1440 560"><g mask="url(&quot;#SvgjsMask1009&quot;)" fill="none"><path d="M560 260C550.14 260.96 553.6 269.39 552 280C541.53 349.39 532.55 355.12 535.86 420C536.55 433.56 547.08 436.87 560 436.87C578.6 436.87 583.24 433.85 598.89 420C653.24 371.89 648.27 365.25 700 312.94C717.49 295.25 737.33 293.11 737.33 280C737.33 269.46 719.69 267.86 700 265.64C631.02 257.86 624.14 253.78 560 260" stroke="rgba(93, 213, 14, 1)" stroke-width="2"></path><path d="M980 267.44C962.81 267.44 946.21 271.7 946.21 280C946.21 289.38 962.31 302.79 980 302.79C1002.54 302.79 1026.67 289.16 1026.67 280C1026.67 271.48 1003.04 267.44 980 267.44" stroke="rgba(40, 74, 217, 1)" stroke-width="2"></path><path d="M140 309.17C96.98 309.17 59.39 370.87 59.39 420C59.39 455.84 98.33 479.11 140 479.11C187.89 479.11 238.52 457.09 238.52 420C238.52 372.12 186.55 309.17 140 309.17" stroke="rgba(93, 213, 14, 1)" stroke-width="2"></path><path d="M1120 343.23C1091.25 343.23 1075.09 387.28 1075.09 420C1075.09 439.35 1095.85 447.36 1120 447.36C1162.38 447.36 1208.15 442.97 1208.15 420C1208.15 390.91 1157.78 343.23 1120 343.23" stroke="rgba(40, 74, 217, 1)" stroke-width="2"></path><path d="M90.81 0C90.81 19.53 28.19 70 0 70C-17.21 70 -19.76 15.24 0 0C25.64 -19.76 90.81 -15.47 90.81 0" stroke="rgba(93, 213, 14, 1)" stroke-width="2"></path><path d="M171.7 140C194.35 92.36 228.56 112.77 280 77.61C330.96 42.77 324.69 28.72 376.49 0C394.69 -10.09 398.25 0 420 0C490 0 490 0 560 0C630 0 630 0 700 0C770 0 770 0 840 0C910 0 910 0 980 0C1050 0 1050 0 1120 0C1190 0 1190 0 1260 0C1330 0 1330 0 1400 0C1470 0 1490.59 -20.59 1540 0C1560.59 8.58 1560.58 49.25 1540 58.33C1490.58 80.13 1462.54 40.03 1400 61.76C1345.04 80.86 1346.07 95.31 1305 140C1276.07 171.49 1295.38 200.15 1260 214.12C1202.88 236.67 1189.92 210.93 1120 213.04C1049.92 215.15 1048.41 209.41 980 222.56C908.41 236.33 909.87 267.33 840 266.88C769.87 266.43 764.8 253.84 700 220.77C640.49 190.4 636.06 188.12 591.38 140C566.06 112.73 584.51 70 560 70C523.32 70 493.23 92.88 469 140C439.23 197.88 450.38 210.23 452 280C453.64 350.23 444.23 362.34 475.52 420C498.23 461.86 519.69 447.07 560 479.04C607.95 517.07 652.05 536.88 652.05 560C652.05 577.36 606.03 560 560 560C516.37 560 506.39 578.77 472.73 560C436.39 539.73 452.06 515.61 420 481.92C385.44 445.61 380.66 449.68 339.5 420C310.66 399.21 306.3 404.62 280 380.98C228.43 334.62 210.73 340.03 183.75 280C156.58 219.54 146.23 193.56 171.7 140" stroke="rgba(93, 213, 14, 1)" stroke-width="2"></path><path d="M0 192.5C27.71 192.5 93.33 233.61 93.33 280C93.33 332.26 26.49 389.8 0 389.8C-20.18 389.8 0 334.9 0 280C0 236.25 -18.95 192.5 0 192.5" stroke="rgba(40, 74, 217, 1)" stroke-width="2"></path><path d="M696.11 420C696.11 417.81 697.85 415.88 700 415.88C702.71 415.88 705.83 417.75 705.83 420C705.83 422.5 702.65 425.38 700 425.38C697.79 425.38 696.11 422.56 696.11 420" stroke="rgba(93, 213, 14, 1)" stroke-width="2"></path><path d="M934.71 420C934.71 399.68 959.33 384.19 980 384.19C996.51 384.19 1009.06 400.67 1009.06 420C1009.06 446.07 997.33 475 980 475C960.15 475 934.71 445.08 934.71 420" stroke="rgba(93, 213, 14, 1)" stroke-width="2"></path><path d="M1312.5 420C1319.89 372.26 1352.94 342.22 1400 342.22C1459.19 342.22 1513.18 367.68 1525 420C1537.78 476.57 1496.94 506.52 1449.19 560C1434.44 576.52 1424.6 560 1400 560C1383.15 560 1374.33 572.84 1366.3 560C1330.58 502.84 1303.04 481.15 1312.5 420" stroke="rgba(93, 213, 14, 1)" stroke-width="2"></path><path d="M0 452.08C43.29 451.12 68.52 507.91 140 556.89C147.27 561.87 157.5 559.22 157.5 560C157.5 560.77 148.75 560 140 560C70 560 39.53 590.47 0 560C-30.47 536.51 -26.71 452.67 0 452.08" stroke="rgba(93, 213, 14, 1)" stroke-width="2"></path><path d="M1018.39 560C1018.39 540.05 1072.11 487.59 1120 487.59C1159.54 487.59 1193.26 538.84 1193.26 560C1193.26 575.05 1156.63 560 1120 560C1069.19 560 1018.39 576.25 1018.39 560" stroke="rgba(40, 74, 217, 1)" stroke-width="2"></path><path d="M237.74 140C243.11 118.77 257.84 115.65 280 115.65C311.91 115.65 333.55 112.58 345.88 140C370.5 194.75 374.33 223.04 353.89 280C341.39 314.85 313.91 323.61 280 323.61C256.19 323.61 244.8 307.62 238.44 280C223.67 215.81 222.33 200.94 237.74 140" stroke="rgba(93, 213, 14, 1)" stroke-width="2"></path><path d="M651.72 140C618.6 77.58 591.9 42.82 606.67 0C616.04 -27.18 653.34 0 700 0C770 0 770 0 840 0C910 0 910 0 980 0C1050 0 1099.12 -33.81 1120 0C1142.35 36.19 1109.43 85.47 1066.47 140C1039.43 174.32 1025.3 174.19 980 177.69C912.07 182.94 910.06 157.95 840 157.5C770.06 157.05 766.01 182.04 700 175.9C671.87 173.29 665.27 165.53 651.72 140" stroke="rgba(40, 74, 217, 1)" stroke-width="2"></path><path d="M1260 38.18C1193.5 38.18 1120 9.72 1120 0C1120 -9.37 1190 0 1260 0C1286.25 0 1312.5 -8.54 1312.5 0C1312.5 10.55 1289.75 38.18 1260 38.18" stroke="rgba(40, 74, 217, 1)" stroke-width="2"></path><path d="M0 247.19C10.39 247.19 35 262.6 35 280C35 299.6 9.93 321.18 0 321.18C-7.57 321.18 0 300.59 0 280C0 263.6 -7.11 247.19 0 247.19" stroke="rgba(40, 74, 217, 1)" stroke-width="2"></path><path d="M0 525C14.58 525 46.67 550.28 46.67 560C46.67 567.78 13.33 570 0 560C-10 552.5 -8.75 525 0 525" stroke="rgba(40, 74, 217, 1)" stroke-width="2"></path><path d="M518.18 560C518.18 548.81 538.83 521.2 560 521.2C581.8 521.2 604.11 548.92 604.11 560C604.11 568.32 582.06 560 560 560C539.09 560 518.18 568.21 518.18 560" stroke="rgba(40, 74, 217, 1)" stroke-width="2"></path><path d="M1074.84 560C1074.84 551.13 1098.71 527.82 1120 527.82C1137.57 527.82 1152.56 550.6 1152.56 560C1152.56 566.69 1136.28 560 1120 560C1097.42 560 1074.84 567.22 1074.84 560" stroke="rgba(93, 213, 14, 1)" stroke-width="2"></path></g><defs><mask id="SvgjsMask1009"><rect width="1440" height="560" fill="#ffffff"></rect></mask></defs></svg>