<?xml version="1.0" encoding="utf-8"?>
<!-- Generator: Adobe Illustrator 25.2.0, SVG Export Plug-In . SVG Version: 6.00 Build 0)  -->
<svg version="1.1" id="Слой_1" xmlns="http://www.w3.org/2000/svg" xmlns:xlink="http://www.w3.org/1999/xlink" x="0px" y="0px"
	 viewBox="0 0 1067 601" style="enable-background:new 0 0 1067 601;" xml:space="preserve">
<style type="text/css">
	.st0{fill:none;stroke:#D0893D;stroke-width:2;stroke-miterlimit:10;}
	.st1{stroke:#D0893D;stroke-width:0.75;stroke-miterlimit:10;}
	.st2{stroke:#D0893D;stroke-width:2;stroke-miterlimit:10;}
	.st3{stroke:#D0893D;stroke-width:3;stroke-miterlimit:10;}
	.st4{fill:#0000FF;stroke:#D0893D;stroke-width:3;stroke-miterlimit:10;}
	.st5{fill:#9FA288;stroke:#D0893D;stroke-width:3;stroke-miterlimit:10;}
	.st6{opacity:0.51;fill:#D0893D;stroke:#D0893D;stroke-width:3;stroke-miterlimit:10;}
	.st7{fill:#D0893D;stroke:#D0893D;stroke-width:3;stroke-miterlimit:10;}
	.st8{fill:#FFFFFF;stroke:#D0893D;stroke-width:3;stroke-miterlimit:10;}
	.st9{fill:#FFFFFC;stroke:#D0893D;stroke-width:3;stroke-miterlimit:10;}
	.st10{fill:#FFFFFC;stroke:#D0893D;stroke-width:2;stroke-miterlimit:10;}
	.st11{fill:#D0893D;stroke:#D0893D;stroke-width:2;stroke-miterlimit:10;}
	.st12{fill:none;}
	.st13{fill:#9EA19F;}
	.st14{font-family:'Impact';}
	.st15{font-size:55px;}
	.st16{letter-spacing:1;}
	.st17{fill:#D0893D;}
	.st18{font-size:68px;}
	.st19{letter-spacing:9;}
	.st20{fill:#9C9F9E;}
	.st21{font-size:102px;}
	.st22{letter-spacing:16;}
</style>
<line class="st0" x1="603.19" y1="289.12" x2="599.19" y2="289.12"/>
<path class="st1" d="M3343.5-31.5"/>
<path class="st1" d="M3355.5-32.5"/>
<g>
	<g>
		<path class="st2" d="M745.81,228.88"/>
		<g>
			<path class="st3" d="M457.31,161.38"/>
			<path class="st3" d="M569.31,215.38"/>
			<path class="st3" d="M557.31,230.38"/>
			<path class="st3" d="M433.81,92.88"/>
			<path class="st4" d="M448.81,203.88"/>
			<path class="st5" d="M1046.13,397.58c-79.99-48.99-254.34-89.08-458.13-99.76C305.35,283.02,73.1,330.38,69.26,403.61
				c-0.79,15.11,8.21,30.14,25.47,44.61c-30.95-18.95-47.78-39.24-46.71-59.67c3.84-73.24,236.08-120.6,518.74-105.79
				C791.09,294.52,979.75,341.91,1046.13,397.58z"/>
			<path class="st6" d="M1022.4,375.87c-79.99-48.99-254.34-89.08-458.13-99.76C281.62,261.3,49.37,308.66,45.53,381.9
				c-0.79,15.11,8.21,30.14,25.47,44.61c-30.95-18.95-47.78-39.24-46.71-59.67c3.84-73.24,236.08-120.6,518.74-105.79
				C767.36,272.81,956.02,320.2,1022.4,375.87z"/>
			<path class="st7" d="M1022.4,375.87c-79.99-48.99-254.34-89.08-458.13-99.76C281.62,261.3,49.37,308.66,45.53,381.9
				c-0.79,15.11,8.21,30.14,25.47,44.61c-30.95-18.95-47.78-39.24-46.71-59.67c3.84-73.24,236.08-120.6,518.74-105.79
				C767.36,272.81,956.02,320.2,1022.4,375.87z"/>
			<g>
				<path class="st8" d="M476.31,259.8V97.88h-7.5v161.77C471.31,259.69,473.81,259.74,476.31,259.8z"/>
				<polygon class="st8" points="498.81,97.88 498.49,97.88 498.81,97.97 				"/>
				<path class="st8" d="M468.81,259.65V97.88h-14v161.57C459.46,259.5,464.13,259.56,468.81,259.65z"/>
				<path class="st8" d="M483.81,259.97V97.88h-7.5V259.8C478.81,259.85,481.31,259.91,483.81,259.97z"/>
				<path class="st8" d="M497.31,260.36V97.88h-13.5v162.1C488.3,260.09,492.8,260.22,497.31,260.36z"/>
				<path class="st9" d="M284.31,107.38v-22.5v-24.5h-107l-28.12-28.12l-28.12,28.12H93.31v218h98.31
					c28.3-5.1,59.37-9.26,92.69-12.38V107.38z M132.51,251.12h-18v-19h18V251.12z M132.51,216.12h-18v-19h18V216.12z M132.51,181.12
					h-18v-19h18V181.12z M132.51,146.12h-18v-19h18V146.12z M132.51,111.04h-18v-19h18V111.04z M183.01,251.12h-32v-19h32V251.12z
					 M183.01,216.12h-32v-19h32V216.12z M183.01,181.12h-32v-19h32V181.12z M183.01,146.12h-32v-19h32V146.12z M183.01,111.04h-32
					v-19h32V111.04z M219.01,251.12h-16v-19h16V251.12z M219.01,216.12h-16v-19h16V216.12z M219.01,181.12h-16v-19h16V181.12z
					 M219.01,146.12h-16v-19h16V146.12z M203.01,111.04v-19h16v19H203.01z"/>
				<rect x="114.51" y="92.04" class="st7" width="18" height="19"/>
				<rect x="151.01" y="92.04" class="st7" width="32" height="19"/>
				<rect x="203.01" y="92.04" class="st7" width="16" height="19"/>
				<rect x="114.51" y="127.12" class="st7" width="18" height="19"/>
				<rect x="151.01" y="127.12" class="st7" width="32" height="19"/>
				<rect x="203.01" y="127.12" class="st7" width="16" height="19"/>
				<rect x="114.51" y="162.12" class="st7" width="18" height="19"/>
				<rect x="151.01" y="162.12" class="st7" width="32" height="19"/>
				<rect x="203.01" y="162.12" class="st7" width="16" height="19"/>
				<rect x="114.51" y="197.12" class="st7" width="18" height="19"/>
				<rect x="151.01" y="197.12" class="st7" width="32" height="19"/>
				<rect x="203.01" y="197.12" class="st7" width="16" height="19"/>
				<rect x="114.51" y="232.12" class="st7" width="18" height="19"/>
				<rect x="151.01" y="232.12" class="st7" width="32" height="19"/>
				<rect x="203.01" y="232.12" class="st7" width="16" height="19"/>
				<path class="st9" d="M423.81,107.88l1-0.32l0.5-0.16v-0.02h-141v158.62c5.42-0.51,10.91-0.99,16.45-1.44v-10.43h18v9.07
					c6.11-0.42,12.27-0.81,18.5-1.17v-7.91h32v6.41c6.61-0.24,13.28-0.45,20-0.62v-5.79h16v5.46c6.47-0.11,12.99-0.18,19.55-0.21
					V107.55L423.81,107.88z M318.76,240.12h-18v-19h18V240.12z M318.76,207.12h-18v-19h18V207.12z M318.76,174.12h-18v-19h18V174.12
					z M318.76,141.12h-18v-19h18V141.12z M369.26,240.12h-32v-19h32V240.12z M369.26,207.12h-32v-19h32V207.12z M369.26,174.12h-32
					v-19h32V174.12z M369.26,141.12h-32v-19h32V141.12z M405.26,240.12h-16v-19h16V240.12z M405.26,207.12h-16v-19h16V207.12z
					 M405.26,174.12h-16v-19h16V174.12z M405.26,141.12h-16v-19h16V141.12z"/>
				<rect x="300.76" y="122.12" class="st7" width="18" height="19"/>
				<rect x="337.26" y="122.12" class="st7" width="32" height="19"/>
				<rect x="389.26" y="122.12" class="st7" width="16" height="19"/>
				<rect x="300.76" y="155.12" class="st7" width="18" height="19"/>
				<rect x="337.26" y="155.12" class="st7" width="32" height="19"/>
				<rect x="389.26" y="155.12" class="st7" width="16" height="19"/>
				<rect x="300.76" y="188.12" class="st7" width="18" height="19"/>
				<rect x="337.26" y="188.12" class="st7" width="32" height="19"/>
				<rect x="389.26" y="188.12" class="st7" width="16" height="19"/>
				<rect x="300.76" y="221.12" class="st7" width="18" height="19"/>
				<rect x="337.26" y="221.12" class="st7" width="32" height="19"/>
				<rect x="389.26" y="221.12" class="st7" width="16" height="19"/>
				<path class="st7" d="M300.76,254.12v10.43c5.94-0.48,11.94-0.94,18-1.36v-9.07H300.76z"/>
				<path class="st7" d="M337.26,254.12v7.91c10.5-0.6,21.17-1.1,32-1.5v-6.41H337.26z"/>
				<path class="st7" d="M389.26,254.12v5.79c5.3-0.13,10.63-0.24,16-0.33v-5.46H389.26z"/>
				<path class="st8" d="M454.81,259.45V97.88l-29.5,9.52v151.97C435.05,259.32,444.88,259.34,454.81,259.45z"/>
				<path class="st8" d="M425.31,107.4l-0.5,0.16v151.81c0.17,0,0.33,0,0.5,0V107.4z"/>
				<path class="st10" d="M667.81,273.3c12.05,1.46,23.92,3.03,35.59,4.69h155.41v-218h-27.76l-28.12-28.12l-28.12,28.12h-107v24.88
					v22.12V273.3z M819.61,91.66h18v19h-18V91.66z M819.61,126.75h18v19h-18V126.75z M819.61,161.75h18v19h-18V161.75z
					 M819.61,196.75h18v19h-18V196.75z M819.61,231.75h18v19h-18V231.75z M769.11,91.66h32v19h-32V91.66z M769.11,126.75h32v19h-32
					V126.75z M769.11,161.75h32v19h-32V161.75z M769.11,196.75h32v19h-32V196.75z M769.11,231.75h32v19h-32V231.75z M733.11,91.66
					h16v19h-16V91.66z M733.11,126.75h16v19h-16V126.75z M733.11,161.75h16v19h-16V161.75z M733.11,196.75h16v19h-16V196.75z
					 M733.11,231.75h16v19h-16V231.75z"/>
				<rect x="819.61" y="91.66" class="st7" width="18" height="19"/>
				<rect x="769.11" y="91.66" class="st7" width="32" height="19"/>
				<rect x="733.11" y="91.66" class="st7" width="16" height="19"/>
				<rect x="819.61" y="126.75" class="st7" width="18" height="19"/>
				<rect x="769.11" y="126.75" class="st7" width="32" height="19"/>
				<rect x="733.11" y="126.75" class="st7" width="16" height="19"/>
				<rect x="819.61" y="161.75" class="st7" width="18" height="19"/>
				<rect x="769.11" y="161.75" class="st7" width="32" height="19"/>
				<rect x="733.11" y="161.75" class="st7" width="16" height="19"/>
				<rect x="819.61" y="196.75" class="st7" width="18" height="19"/>
				<rect x="769.11" y="196.75" class="st7" width="32" height="19"/>
				<rect x="733.11" y="196.75" class="st7" width="16" height="19"/>
				<rect x="819.61" y="231.75" class="st7" width="18" height="19"/>
				<rect x="769.11" y="231.75" class="st7" width="32" height="19"/>
				<rect x="733.11" y="231.75" class="st7" width="16" height="19"/>
				<path class="st10" d="M527.31,107.18l1,0.32L527.31,107.18v154.39c3.23,0.15,6.47,0.31,9.72,0.48c3.28,0.17,6.56,0.35,9.83,0.54
					v-8.85h16v9.83c6.7,0.44,13.37,0.91,20,1.41v-11.24h32v13.92c6.21,0.57,12.37,1.17,18.5,1.8v-15.72h18v17.64
					c5.52,0.62,11,1.26,16.45,1.92V106.99h-141v0.02L527.31,107.18L527.31,107.18z M633.36,121.75h18v19h-18V121.75z M633.36,154.75
					h18v19h-18V154.75z M633.36,187.75h18v19h-18V187.75z M633.36,220.75h18v19h-18V220.75z M582.86,121.75h32v19h-32V121.75z
					 M582.86,154.75h32v19h-32V154.75z M582.86,187.75h32v19h-32V187.75z M582.86,220.75h32v19h-32V220.75z M546.86,121.75h16v19
					h-16V121.75z M546.86,154.75h16v19h-16V154.75z M546.86,187.75h16v19h-16V187.75z M546.86,220.75h16v19h-16V220.75z"/>
				<rect x="633.36" y="121.75" class="st7" width="18" height="19"/>
				<rect x="582.86" y="121.75" class="st7" width="32" height="19"/>
				<rect x="546.86" y="121.75" class="st7" width="16" height="19"/>
				<rect x="633.36" y="154.75" class="st7" width="18" height="19"/>
				<rect x="582.86" y="154.75" class="st7" width="32" height="19"/>
				<rect x="546.86" y="154.75" class="st7" width="16" height="19"/>
				<rect x="633.36" y="187.75" class="st7" width="18" height="19"/>
				<rect x="582.86" y="187.75" class="st7" width="32" height="19"/>
				<rect x="546.86" y="187.75" class="st7" width="16" height="19"/>
				<rect x="633.36" y="220.75" class="st7" width="18" height="19"/>
				<rect x="582.86" y="220.75" class="st7" width="32" height="19"/>
				<rect x="546.86" y="220.75" class="st7" width="16" height="19"/>
				<path class="st7" d="M633.36,253.75v15.72c6.04,0.62,12.04,1.26,18,1.92v-17.64H633.36z"/>
				<path class="st7" d="M582.86,253.75v11.24c10.77,0.81,21.44,1.71,32,2.68v-13.92H582.86z"/>
				<path class="st7" d="M546.86,253.75v8.85c5.36,0.31,10.69,0.64,16,0.99v-9.83H546.86z"/>
				<polygon class="st8" points="497.31,97.49 497.31,97.88 498.49,97.88 				"/>
				<path class="st8" d="M526.81,261.54V107.02l-28-9.04v162.44C508.08,260.72,517.42,261.1,526.81,261.54z"/>
				<path class="st8" d="M498.81,260.41V97.97l-0.32-0.1h-1.18v162.49C497.81,260.38,498.31,260.4,498.81,260.41z"/>
				<path class="st8" d="M527.31,261.57V107.18v0l-0.5-0.16v154.53C526.98,261.55,527.15,261.56,527.31,261.57z"/>
				<polygon class="st11" points="425.31,107.38 425.31,107.4 454.81,97.88 468.81,97.88 476.31,97.88 476.31,97.38 476.31,97.88 
					483.81,97.88 497.31,97.88 497.31,97.49 498.49,97.88 498.81,97.88 498.81,97.97 526.81,107.02 526.81,106.99 667.81,106.99 
					667.81,84.88 284.31,84.88 284.31,107.38 				"/>
			</g>
		</g>
		<polygon class="st11" points="283.76,279.88 92.9,317.88 92.81,317.88 92.81,279.88 		"/>
		<polygon class="st11" points="667.86,278.87 858.72,312.87 858.81,312.87 858.81,278.87 		"/>
	</g>
	<rect x="162.57" y="332.02" class="st12" width="784" height="55"/>
	<text transform="matrix(1 0 0 1 162.5669 381.2676)" class="st13 st14 st15 st16">Забайкальский краевой</text>
	<rect x="156.31" y="397.38" class="st12" width="646" height="72.5"/>
	<text transform="matrix(1 0 0 1 156.312 451.1621)" class="st17 st14 st18 st19">ОНКОЛОГИЧЕСКИЙ</text>
	<g>
		<rect x="165.31" y="466.38" class="st12" width="627" height="102"/>
		<text transform="matrix(1 0 0 1 165.312 547.0557)" class="st20 st14 st21 st22">ДИСПАНСЕР</text>
	</g>
</g>
</svg>
