<?xml version="1.0" encoding="utf-8"?>
<!-- Generator: Adobe Illustrator 24.3.0, SVG Export Plug-In . SVG Version: 6.00 Build 0)  -->
<svg version="1.1"
	 
	  x="0px" y="0px" viewBox="0 0 300 300"
	 style="enable-background:new 0 0 300 300;" xml:space="preserve">
<style type="text/css">
	.st0{fill:#00FFFF;}
	.st1{fill:#4D4D4D;}
	.st2{font-family:'FranklinGothic-DemiCond';}
	.st3{font-size:32px;}
	.st4{fill:#CE5700;}
	.st5{font-size:33.5px;}
	.st6{font-size:51px;}
	.st7{letter-spacing:3.8;}
	.st8{fill:none;stroke:#CC6615;stroke-width:2;stroke-miterlimit:10;}
	.st9{fill:#800000;}
	.st10{fill:#CE5700;stroke:#CE5700;stroke-width:2;stroke-miterlimit:10;}
	.st11{fill:#FFFFFF;stroke:#CE5700;stroke-width:2;stroke-miterlimit:10;}
	.st12{fill:none;stroke:#CE5700;stroke-width:2;stroke-miterlimit:10;}
	.st13{fill:none;stroke:#CE5700;stroke-miterlimit:10;}
</style>

<path id="path526_1_" class="st0" d="M929.3-699.1c0,0-0.1-0.1-0.1-0.2c-0.1-0.1-0.1-0.1-0.2-0.2c0,0-0.1-0.1-0.1-0.1c0,0,0,0,0,0
	l0,0l0.1,0.1C929.1-699.4,929.2-699.3,929.3-699.1l0.1,0L929.3-699.1L929.3-699.1L929.3-699.1z"/>
<path id="path528_1_" class="st0" d="M929.3-699.1c0,0-0.1-0.1-0.1-0.2c-0.1-0.1-0.1-0.1-0.2-0.2c0,0-0.1-0.1-0.1-0.1c0,0,0,0,0,0
	l0,0l0,0C929-699.4,929.2-699.3,929.3-699.1l0.1,0L929.3-699.1L929.3-699.1L929.3-699.1z"/>
<text transform="matrix(0.7131 0 0 1 60.5957 193.0727)" class="st1 st2 st3">Забайкальский краевой</text>
<text transform="matrix(1.0575 0 0 1 55.4844 218.2398)" class="st4 st2 st5">онкологический</text>
<text transform="matrix(0.7879 0 0 1 55.8604 263.6152)" class="st1 st2 st6 st7">ДИСПАНСЕР</text>
<line class="st8" x1="-620.5" y1="-316.7" x2="-620.5" y2="-316.1"/>
<g>
	<g id="g8479_3_" transform="matrix(1.0159085,0,0,1,16.361371,26.329555)">
		<path class="st9" d="M267,144.6c-3.8-2.4-8-4.8-12.7-6.9l0,0c-3.2-1.5-6.6-2.9-10.2-4.3c-27-10.1-64.1-16.1-103.4-16.1
			c-40.4,0-77,6.1-103.4,16C11,143.2-5.1,156.7-5.1,171.6c0,0.2,0,0.3,0,0.5c0.1,2.7,0.7,5.4,1.9,8c1.5,3.4,3.8,6.7,6.9,10l0.1,0.1
			c0.6,0.6,1.2,1.2,1.8,1.8c-0.1-0.1-0.3-0.2-0.4-0.3c-1.6-1.1-3.1-2.1-4.6-3.2c-0.2-0.2-0.5-0.3-0.7-0.5l0,0
			c-8.8-7-13.5-14.6-13.7-22.4c0-0.2,0-0.3,0-0.4c0-12.7,11.8-24.4,31.4-33.7c26.7-12.6,68-20.6,114.3-20.6
			c44.8,0,86.2,7.6,113.4,20.2C254.2,135,261.5,139.6,267,144.6z"/>
		<path id="path8246_3_" class="st1" d="M141.9,118.6C61.4,118.6-3.9,143-3.9,173c0.1,9.4,6.8,18.7,19.4,26.9
			c-7-6.4-10.6-13.3-10.7-20.3c0-30,65.3-54.3,145.7-54.3c52.2,0,100.4,10.4,126.3,27.3C254.6,132,201.2,118.6,141.9,118.6
			L141.9,118.6z"/>
	</g>
	<g>
		<polygon class="st4" points="215.4,64.2 215.4,78.7 174.4,78.7 161.8,70.8 135.5,70.8 123.5,78.7 81.8,78.7 81.8,64.2 		"/>
		<path class="st10" d="M78.7,139.5c-17.8,3.5-33.3,8.3-45.8,14.1v-14.1H78.7z"/>
		<path class="st10" d="M264.3,138.9v14.3c-13.2-6-29.6-10.8-48-14.3H264.3z"/>
		<path class="st11" d="M264.3,54.4v84.5h-48c-0.3,0-0.5-0.1-0.8-0.2c-20.2-3.7-42.8-5.8-66.4-5.8c-24.2,0-47.1,2.1-67.3,5.9h0
			c-1,0.2-2,0.4-3,0.6H32.9v-85h5.4l13.5-12.8l13.5,12.8h16.4v24.7h41.8l12-7.9h26.3l12.6,7.9h41V54.4h16.4l13.5-12.8l13.5,12.8
			H264.3z"/>
		<line class="st12" x1="81.8" y1="78.7" x2="81.8" y2="138.9"/>
		<line class="st12" x1="215.4" y1="78.7" x2="215.4" y2="139.5"/>
		<line class="st12" x1="123.5" y1="78.7" x2="123.5" y2="133.7"/>
		<line class="st12" x1="174.4" y1="79.1" x2="174.4" y2="133.7"/>
		<line class="st12" x1="135.5" y1="71.1" x2="135.5" y2="132.1"/>
		<line class="st12" x1="161.8" y1="71.1" x2="161.8" y2="133.2"/>
	</g>
	<g>
		<line class="st13" x1="148.6" y1="71.5" x2="148.6" y2="133.3"/>
		<line class="st13" x1="142.6" y1="71" x2="142.6" y2="132.8"/>
		<line class="st13" x1="154.6" y1="71.5" x2="154.6" y2="133.3"/>
	</g>
</g>
<g>
	<g id="g2112_1_">
		<rect id="rect2706_1_" x="89.2" y="86.4" class="st4" width="5.1" height="6.7"/>
		<rect id="rect2708_1_" x="97.8" y="86.3" class="st4" width="11.8" height="6.9"/>
		<rect id="rect2710_1_" x="113.6" y="86.2" class="st4" width="5.4" height="7"/>
	</g>
	<g id="g2107_1_">
		<rect id="rect4193_1_" x="88.7" y="97.4" class="st4" width="5.1" height="6.7"/>
		<rect id="rect4195_1_" x="97.4" y="97.2" class="st4" width="11.8" height="6.9"/>
		<rect id="rect4197_1_" x="113.2" y="97.2" class="st4" width="5.4" height="7"/>
	</g>
	<g id="g2102_1_">
		<rect id="rect4201_1_" x="88.7" y="108.8" class="st4" width="5.1" height="6.7"/>
		<rect id="rect4203_1_" x="97.4" y="108.7" class="st4" width="11.8" height="6.9"/>
		<rect id="rect4205_1_" x="113.2" y="108.6" class="st4" width="5.4" height="7"/>
	</g>
	<g id="g2097_1_">
		<rect id="rect4209_1_" x="88.7" y="120.2" class="st4" width="5.1" height="6.7"/>
		<rect id="rect4211_1_" x="97.4" y="120.1" class="st4" width="11.8" height="6.9"/>
		<rect id="rect4213_1_" x="113.2" y="120.1" class="st4" width="5.4" height="7"/>
	</g>
	<g id="g2117_1_">
		<path id="rect4217_1_" class="st4" d="M88.7,131.6v5.3c1.7-0.2,3.4-0.4,5.1-0.6v-4.7H88.7z"/>
		<path id="rect4219_1_" class="st4" d="M97.4,131.5v4.4c3.8-0.4,7.8-0.8,11.8-1.1v-3.4H97.4z"/>
		<path id="rect4221_1_" class="st4" d="M113.2,131.5v3.1c1.8-0.1,3.6-0.2,5.4-0.3v-2.8L113.2,131.5z"/>
	</g>
	<g id="g2618_1_" transform="matrix(0.88032352,0,0,0.87948137,-74.920537,-14.150015)">
		<rect id="rect2540_1_" x="128" y="86.1" class="st4" width="7" height="9.3"/>
		<rect id="rect2542_1_" x="140" y="86" class="st4" width="16.3" height="9.6"/>
		<rect id="rect2544_1_" x="161.8" y="85.9" class="st4" width="7.4" height="9.7"/>
	</g>
	<g id="g2626_1_" transform="matrix(0.88032352,0,0,0.87948137,-74.920537,0.3598517)">
		<rect id="rect2620_1_" x="128" y="88.3" class="st4" width="7" height="9.3"/>
		<rect id="rect2622_1_" x="140" y="88.1" class="st4" width="16.3" height="9.6"/>
		<rect id="rect2624_1_" x="161.8" y="88.1" class="st4" width="7.4" height="9.7"/>
	</g>
	<g id="g2634_1_" transform="matrix(0.88032352,0,0,0.87948137,-74.920537,29.569794)">
		<rect id="rect2628_1_" x="128" y="92.7" class="st4" width="7" height="9.3"/>
		<rect id="rect2630_1_" x="140" y="92.5" class="st4" width="16.3" height="9.6"/>
		<rect id="rect2632_1_" x="161.8" y="92.5" class="st4" width="7.4" height="9.7"/>
	</g>
	<g id="g2642_1_" transform="matrix(0.88032352,0,0,0.87948137,-74.920537,15.239464)">
		<rect id="rect2636_1_" x="128" y="90.5" class="st4" width="7" height="9.3"/>
		<rect id="rect2638_1_" x="140" y="90.4" class="st4" width="16.3" height="9.6"/>
		<rect id="rect2640_1_" x="161.8" y="90.3" class="st4" width="7.4" height="9.7"/>
	</g>
	<g id="g2650_1_" transform="matrix(0.88032352,0,0,0.87948137,-74.920537,43.620148)">
		<rect id="rect2644_1_" x="128" y="94.8" class="st4" width="7" height="9.3"/>
		<rect id="rect2646_1_" x="140" y="94.6" class="st4" width="16.3" height="9.6"/>
		<rect id="rect2648_1_" x="161.8" y="94.6" class="st4" width="7.4" height="9.7"/>
	</g>
</g>
<g>
	<g id="g2112_2_">
		<rect id="rect2706_2_" x="203.6" y="86.1" class="st4" width="5.1" height="6.7"/>
		<rect id="rect2708_2_" x="188.3" y="86" class="st4" width="11.8" height="6.9"/>
		<rect id="rect2710_2_" x="178.9" y="86" class="st4" width="5.4" height="7"/>
	</g>
	<g id="g2107_2_">
		<rect id="rect4193_2_" x="204.1" y="97.1" class="st4" width="5.1" height="6.7"/>
		<rect id="rect4195_2_" x="188.7" y="97" class="st4" width="11.8" height="6.9"/>
		<rect id="rect4197_2_" x="179.3" y="97" class="st4" width="5.4" height="7"/>
	</g>
	<g id="g2102_2_">
		<rect id="rect4201_2_" x="204.1" y="108.5" class="st4" width="5.1" height="6.7"/>
		<rect id="rect4203_2_" x="188.7" y="108.4" class="st4" width="11.8" height="6.9"/>
		<rect id="rect4205_2_" x="179.3" y="108.4" class="st4" width="5.4" height="7"/>
	</g>
	<g id="g2097_2_">
		<rect id="rect4209_2_" x="204.1" y="120" class="st4" width="5.1" height="6.7"/>
		<rect id="rect4211_2_" x="188.7" y="119.8" class="st4" width="11.8" height="6.9"/>
		<rect id="rect4213_2_" x="179.3" y="119.8" class="st4" width="5.4" height="7"/>
	</g>
	<g id="g2117_2_">
		<path id="rect4217_2_" class="st4" d="M209.1,131.4v5.3c-1.7-0.2-3.4-0.4-5.1-0.6v-4.7H209.1z"/>
		<path id="rect4219_2_" class="st4" d="M200.5,131.3v4.4c-3.8-0.4-7.8-0.8-11.8-1.1v-3.4H200.5z"/>
		<path id="rect4221_2_" class="st4" d="M184.7,131.2v3.1c-1.8-0.1-3.6-0.2-5.4-0.3v-2.8L184.7,131.2z"/>
	</g>
	<g id="g2618_2_" transform="matrix(0.88032352,0,0,0.87948137,-74.920537,-14.150015)">
		<rect id="rect2540_2_" x="373.6" y="85.9" class="st4" width="7" height="9.3"/>
		<rect id="rect2542_2_" x="352.3" y="85.7" class="st4" width="16.3" height="9.6"/>
		<rect id="rect2544_2_" x="339.3" y="85.7" class="st4" width="7.4" height="9.7"/>
	</g>
	<g id="g2626_2_" transform="matrix(0.88032352,0,0,0.87948137,-74.920537,0.3598517)">
		<rect id="rect2620_2_" x="373.6" y="88" class="st4" width="7" height="9.3"/>
		<rect id="rect2622_2_" x="352.3" y="87.9" class="st4" width="16.3" height="9.6"/>
		<rect id="rect2624_2_" x="339.3" y="87.8" class="st4" width="7.4" height="9.7"/>
	</g>
	<g id="g2634_2_" transform="matrix(0.88032352,0,0,0.87948137,-74.920537,29.569794)">
		<rect id="rect2628_2_" x="373.6" y="92.4" class="st4" width="7" height="9.3"/>
		<rect id="rect2630_2_" x="352.3" y="92.2" class="st4" width="16.3" height="9.6"/>
		<rect id="rect2632_2_" x="339.3" y="92.2" class="st4" width="7.4" height="9.7"/>
	</g>
	<g id="g2642_2_" transform="matrix(0.88032352,0,0,0.87948137,-74.920537,15.239464)">
		<rect id="rect2636_2_" x="373.6" y="90.2" class="st4" width="7" height="9.3"/>
		<rect id="rect2638_2_" x="352.3" y="90.1" class="st4" width="16.3" height="9.6"/>
		<rect id="rect2640_2_" x="339.3" y="90" class="st4" width="7.4" height="9.7"/>
	</g>
	<g id="g2650_2_" transform="matrix(0.88032352,0,0,0.87948137,-74.920537,43.620148)">
		<rect id="rect2644_2_" x="373.6" y="94.5" class="st4" width="7" height="9.3"/>
		<rect id="rect2646_2_" x="352.3" y="94.3" class="st4" width="16.3" height="9.6"/>
		<rect id="rect2648_2_" x="339.3" y="94.3" class="st4" width="7.4" height="9.7"/>
	</g>
</g>
</svg>
