<!-- icon666.com - MILLIONS vector ICONS FREE --><svg id="Flat_Gradient_copy" viewBox="0 0 64 64" xmlns="http://www.w3.org/2000/svg" xmlns:xlink="http://www.w3.org/1999/xlink" data-name="Flat Gradient copy"><linearGradient id="linear-gradient" gradientUnits="userSpaceOnUse" x1="4.026" x2="60" y1="31.987" y2="31.987"><stop offset="0" stop-color="#7f00ff"></stop><stop offset="1" stop-color="#e100ff"></stop></linearGradient><path d="m30.30585 25.62507a76.41471 76.41471 0 0 1 -11.29307 27.44921 1.93094 1.93094 0 0 1 -3.22491-2.12464 72.47087 72.47087 0 0 0 10.71748-26.01141c1.03239-6.24146-2.90812-9.93495-7.27384-10.81412a9.30756 9.30756 0 0 0 -11.20681 7.3865 9.47728 9.47728 0 0 0 7.213 11.0286 1.9315 1.9315 0 0 1 -.871 3.763c-17.5457-5.07166-10.8087-29.26437 5.62755-25.96399 5.98501 1.20539 11.76543 6.50356 10.3116 15.28685zm19.15571-15.28685c-16.43664-3.30133-23.17356 20.89342-5.62764 25.96356a1.93128 1.93128 0 0 0 .871-3.76257 9.47628 9.47628 0 0 1 -7.21292-11.0286 9.30855 9.30855 0 0 1 11.20681-7.3865c4.36572.87917 8.30623 4.57266 7.27384 10.81412a72.48787 72.48787 0 0 1 -10.71747 26.01141 1.93094 1.93094 0 0 0 3.22491 2.12464 76.4317 76.4317 0 0 0 11.29307-27.44921c1.45384-8.78329-4.32659-14.08146-10.3116-15.28685z" ></path></svg>