<svg xmlns="http://www.w3.org/2000/svg" viewBox="0 0 2732 956" preserveAspectRatio="xMidYMid" width="2732" height="956" xmlns:xlink="http://www.w3.org/1999/xlink" style="shape-rendering:auto;display:block;background-position-x:0%;background-position-y:0%;background-size:auto;background-origin:padding-box;background-clip:border-box;background:scroll rgb(26, 27, 32) none  repeat;width:2732px;height:956px;;animation:none"><g><path d="M 0 335 C 455 335 911 813 1366 813 C 1821 813 2277 335 2732 335 C 3187 335 3643 813 4098 813 C 4553 813 5009 335 5464 335" fill="none" stroke="rgb(98, 82, 197)" stroke-opacity="0" stroke-width="19" transform="matrix(1,0,0,1,0,0)" style="fill:none;stroke:rgb(98, 82, 197);transform:matrix(1, 0, 0, 1, 0, 0);;animation:none"></path>
<path d="M 0 335.007 C 455 335.007 911 812.993 1366 812.993 C 1821 812.993 2277 335.007 2732 335.007 C 3187 335.007 3643 812.993 4098 812.993 C 4553 812.993 5009 335.007 5464 335.007" fill="none" stroke="rgb(98, 82, 197)" stroke-opacity="0" stroke-width="19" transform="matrix(1,0,0,1,-4.371200084686279,0)" style="fill:none;stroke:rgb(98, 82, 197);transform:matrix(1, 0, 0, 1, -4.3712, 0);;animation:none"></path>
<path d="M 0 335.026 C 455 335.026 911 812.974 1366 812.974 C 1821 812.974 2277 335.026 2732 335.026 C 3187 335.026 3643 812.974 4098 812.974 C 4553 812.974 5009 335.026 5464 335.026" fill="none" stroke="rgb(98, 82, 197)" stroke-opacity="0" stroke-width="19" transform="matrix(1,0,0,1,-8.742400169372559,0)" style="fill:none;stroke:rgb(98, 82, 197);transform:matrix(1, 0, 0, 1, -8.7424, 0);;animation:none"></path>
<path d="M 0 335.059 C 455 335.059 911 812.941 1366 812.941 C 1821 812.941 2277 335.059 2732 335.059 C 3187 335.059 3643 812.941 4098 812.941 C 4553 812.941 5009 335.059 5464 335.059" fill="none" stroke="rgb(98, 82, 197)" stroke-opacity="0" stroke-width="19" transform="matrix(1,0,0,1,-13.113600730895996,0)" style="fill:none;stroke:rgb(98, 82, 197);transform:matrix(1, 0, 0, 1, -13.1136, 0);;animation:none"></path>
<path d="M 0 335.106 C 455 335.106 911 812.894 1366 812.894 C 1821 812.894 2277 335.106 2732 335.106 C 3187 335.106 3643 812.894 4098 812.894 C 4553 812.894 5009 335.106 5464 335.106" fill="none" stroke="rgb(98, 82, 197)" stroke-opacity="0" stroke-width="19" transform="matrix(1,0,0,1,-17.484800338745117,0)" style="fill:none;stroke:rgb(98, 82, 197);transform:matrix(1, 0, 0, 1, -17.4848, 0);;animation:none"></path>
<path d="M 0 335.165 C 455 335.165 911 812.834 1366 812.834 C 1821 812.834 2277 335.165 2732 335.165 C 3187 335.165 3643 812.834 4098 812.834 C 4553 812.834 5009 335.165 5464 335.165" fill="none" stroke="rgb(98, 82, 197)" stroke-opacity="0" stroke-width="19" transform="matrix(1,0,0,1,-21.856000900268555,0)" style="fill:none;stroke:rgb(98, 82, 197);transform:matrix(1, 0, 0, 1, -21.856, 0);;animation:none"></path>
<path d="M 0 335.239 C 455 335.239 911 812.761 1366 812.761 C 1821 812.761 2277 335.239 2732 335.239 C 3187 335.239 3643 812.761 4098 812.761 C 4553 812.761 5009 335.239 5464 335.239" fill="none" stroke="rgb(98, 82, 197)" stroke-opacity="0" stroke-width="19" transform="matrix(1,0,0,1,-26.227201461791992,0)" style="fill:none;stroke:rgb(98, 82, 197);transform:matrix(1, 0, 0, 1, -26.2272, 0);;animation:none"></path>
<path d="M 0 335.326 C 455 335.326 911 812.674 1366 812.674 C 1821 812.674 2277 335.326 2732 335.326 C 3187 335.326 3643 812.674 4098 812.674 C 4553 812.674 5009 335.326 5464 335.326" fill="none" stroke="rgb(98, 82, 197)" stroke-opacity="0" stroke-width="19" transform="matrix(1,0,0,1,-30.598398208618164,0)" style="fill:none;stroke:rgb(98, 82, 197);transform:matrix(1, 0, 0, 1, -30.5984, 0);;animation:none"></path>
<path d="M 0 335.427 C 455 335.427 911 812.573 1366 812.573 C 1821 812.573 2277 335.427 2732 335.427 C 3187 335.427 3643 812.573 4098 812.573 C 4553 812.573 5009 335.427 5464 335.427" fill="none" stroke="rgb(98, 82, 197)" stroke-opacity="0" stroke-width="19" transform="matrix(1,0,0,1,-34.969600677490234,0)" style="fill:none;stroke:rgb(98, 82, 197);transform:matrix(1, 0, 0, 1, -34.9696, 0);;animation:none"></path>
<path d="M 0 335.542 C 455 335.542 911 812.458 1366 812.458 C 1821 812.458 2277 335.543 2732 335.543 C 3187 335.543 3643 812.458 4098 812.458 C 4553 812.458 5009 335.543 5464 335.543" fill="none" stroke="rgb(98, 82, 197)" stroke-opacity="0" stroke-width="19" transform="matrix(1,0,0,1,-39.340797424316406,0)" style="fill:none;stroke:rgb(98, 82, 197);transform:matrix(1, 0, 0, 1, -39.3408, 0);;animation:none"></path>
<path d="M 0 335.672 C 455 335.672 911 812.328 1366 812.328 C 1821 812.328 2277 335.672 2732 335.672 C 3187 335.672 3643 812.328 4098 812.328 C 4553 812.328 5009 335.672 5464 335.672" fill="none" stroke="rgb(98, 82, 197)" stroke-opacity="0" stroke-width="19" transform="matrix(1,0,0,1,-43.71200180053711,0)" style="fill:none;stroke:rgb(98, 82, 197);transform:matrix(1, 0, 0, 1, -43.712, 0);;animation:none"></path>
<path d="M 0 335.815 C 455 335.815 911 812.185 1366 812.185 C 1821 812.185 2277 335.815 2732 335.815 C 3187 335.815 3643 812.185 4098 812.185 C 4553 812.185 5009 335.815 5464 335.815" fill="none" stroke="rgb(98, 83, 197)" stroke-opacity="0" stroke-width="19" transform="matrix(1,0,0,1,-48.08319854736328,0)" style="fill:none;stroke:rgb(98, 83, 197);transform:matrix(1, 0, 0, 1, -48.0832, 0);;animation:none"></path>
<path d="M 0 335.973 C 455 335.973 911 812.027 1366 812.027 C 1821 812.027 2277 335.973 2732 335.973 C 3187 335.973 3643 812.027 4098 812.027 C 4553 812.027 5009 335.973 5464 335.973" fill="none" stroke="rgb(98, 83, 197)" stroke-opacity="0" stroke-width="19" transform="matrix(1,0,0,1,-52.454402923583984,0)" style="fill:none;stroke:rgb(98, 83, 197);transform:matrix(1, 0, 0, 1, -52.4544, 0);;animation:none"></path>
<path d="M 0 336.145 C 455 336.145 911 811.855 1366 811.855 C 1821 811.855 2277 336.145 2732 336.145 C 3187 336.145 3643 811.855 4098 811.855 C 4553 811.855 5009 336.145 5464 336.145" fill="none" stroke="rgb(97, 83, 197)" stroke-opacity="0" stroke-width="19" transform="matrix(1,0,0,1,-56.825599670410156,0)" style="fill:none;stroke:rgb(97, 83, 197);transform:matrix(1, 0, 0, 1, -56.8256, 0);;animation:none"></path>
<path d="M 0 336.332 C 455 336.332 911 811.668 1366 811.668 C 1821 811.668 2277 336.332 2732 336.332 C 3187 336.332 3643 811.668 4098 811.668 C 4553 811.668 5009 336.332 5464 336.332" fill="none" stroke="rgb(97, 83, 197)" stroke-opacity="0" stroke-width="19" transform="matrix(1,0,0,1,-61.19679641723633,0)" style="fill:none;stroke:rgb(97, 83, 197);transform:matrix(1, 0, 0, 1, -61.1968, 0);;animation:none"></path>
<path d="M 0 336.534 C 455 336.534 911 811.466 1366 811.466 C 1821 811.466 2277 336.534 2732 336.534 C 3187 336.534 3643 811.466 4098 811.466 C 4553 811.466 5009 336.534 5464 336.534" fill="none" stroke="rgb(97, 83, 197)" stroke-opacity="0" stroke-width="19" transform="matrix(1,0,0,1,-65.56800079345703,0)" style="fill:none;stroke:rgb(97, 83, 197);transform:matrix(1, 0, 0, 1, -65.568, 0);;animation:none"></path>
<path d="M 0 336.75 C 455 336.75 911 811.25 1366 811.25 C 1821 811.25 2277 336.75 2732 336.75 C 3187 336.75 3643 811.25 4098 811.25 C 4553 811.25 5009 336.75 5464 336.75" fill="none" stroke="rgb(97, 83, 197)" stroke-opacity="0" stroke-width="19" transform="matrix(1,0,0,1,-69.93920135498047,0)" style="fill:none;stroke:rgb(97, 83, 197);transform:matrix(1, 0, 0, 1, -69.9392, 0);;animation:none"></path>
<path d="M 0 336.982 C 455 336.982 911 811.018 1366 811.018 C 1821 811.018 2277 336.982 2732 336.982 C 3187 336.982 3643 811.018 4098 811.018 C 4553 811.018 5009 336.982 5464 336.982" fill="none" stroke="rgb(97, 83, 197)" stroke-opacity="0" stroke-width="19" transform="matrix(1,0,0,1,-74.3104019165039,0)" style="fill:none;stroke:rgb(97, 83, 197);transform:matrix(1, 0, 0, 1, -74.3104, 0);;animation:none"></path>
<path d="M 0 337.228 C 455 337.228 911 810.772 1366 810.772 C 1821 810.772 2277 337.228 2732 337.228 C 3187 337.228 3643 810.772 4098 810.772 C 4553 810.772 5009 337.228 5464 337.228" fill="none" stroke="rgb(97, 84, 197)" stroke-opacity="0" stroke-width="19" transform="matrix(1,0,0,1,-78.68159484863281,0)" style="fill:none;stroke:rgb(97, 84, 197);transform:matrix(1, 0, 0, 1, -78.6816, 0);;animation:none"></path>
<path d="M 0 337.49 C 455 337.49 911 810.51 1366 810.51 C 1821 810.51 2277 337.49 2732 337.49 C 3187 337.49 3643 810.51 4098 810.51 C 4553 810.51 5009 337.49 5464 337.49" fill="none" stroke="rgb(97, 84, 198)" stroke-opacity="0" stroke-width="19" transform="matrix(1,0,0,1,-83.05280303955078,0)" style="fill:none;stroke:rgb(97, 84, 198);transform:matrix(1, 0, 0, 1, -83.0528, 0);;animation:none"></path>
<path d="M 0 337.767 C 455 337.767 911 810.233 1366 810.233 C 1821 810.233 2277 337.767 2732 337.767 C 3187 337.767 3643 810.233 4098 810.233 C 4553 810.233 5009 337.767 5464 337.767" fill="none" stroke="rgb(97, 84, 198)" stroke-opacity="0" stroke-width="19" transform="matrix(1,0,0,1,-87.42400360107422,0)" style="fill:none;stroke:rgb(97, 84, 198);transform:matrix(1, 0, 0, 1, -87.424, 0);;animation:none"></path>
<path d="M 0 338.06 C 455 338.06 911 809.94 1366 809.94 C 1821 809.94 2277 338.06 2732 338.06 C 3187 338.06 3643 809.94 4098 809.94 C 4553 809.94 5009 338.06 5464 338.06" fill="none" stroke="rgb(96, 84, 198)" stroke-opacity="0" stroke-width="19" transform="matrix(1,0,0,1,-91.79519653320312,0)" style="fill:none;stroke:rgb(96, 84, 198);transform:matrix(1, 0, 0, 1, -91.7952, 0);;animation:none"></path>
<path d="M 0 338.368 C 455 338.368 911 809.632 1366 809.632 C 1821 809.632 2277 338.368 2732 338.368 C 3187 338.368 3643 809.632 4098 809.632 C 4553 809.632 5009 338.368 5464 338.368" fill="none" stroke="rgb(96, 84, 198)" stroke-opacity="0" stroke-width="19" transform="matrix(1,0,0,1,-96.16639709472656,0)" style="fill:none;stroke:rgb(96, 84, 198);transform:matrix(1, 0, 0, 1, -96.1664, 0);;animation:none"></path>
<path d="M 0 338.693 C 455 338.693 911 809.307 1366 809.307 C 1821 809.307 2277 338.693 2732 338.693 C 3187 338.693 3643 809.307 4098 809.307 C 4553 809.307 5009 338.693 5464 338.693" fill="none" stroke="rgb(96, 85, 198)" stroke-opacity="0" stroke-width="19" transform="matrix(1,0,0,1,-100.53760528564453,0)" style="fill:none;stroke:rgb(96, 85, 198);transform:matrix(1, 0, 0, 1, -100.538, 0);;animation:none"></path>
<path d="M 0 339.033 C 455 339.033 911 808.967 1366 808.967 C 1821 808.967 2277 339.033 2732 339.033 C 3187 339.033 3643 808.967 4098 808.967 C 4553 808.967 5009 339.033 5464 339.033" fill="none" stroke="rgb(96, 85, 198)" stroke-opacity="0" stroke-width="19" transform="matrix(1,0,0,1,-104.90880584716797,0)" style="fill:none;stroke:rgb(96, 85, 198);transform:matrix(1, 0, 0, 1, -104.909, 0);;animation:none"></path>
<path d="M 0 339.389 C 455 339.389 911 808.611 1366 808.611 C 1821 808.611 2277 339.389 2732 339.389 C 3187 339.389 3643 808.611 4098 808.611 C 4553 808.611 5009 339.389 5464 339.389" fill="none" stroke="rgb(96, 85, 198)" stroke-opacity="0" stroke-width="19" transform="matrix(1,0,0,1,-109.27999877929688,0)" style="fill:none;stroke:rgb(96, 85, 198);transform:matrix(1, 0, 0, 1, -109.28, 0);;animation:none"></path>
<path d="M 0 339.762 C 455 339.762 911 808.238 1366 808.238 C 1821 808.238 2277 339.762 2732 339.762 C 3187 339.762 3643 808.238 4098 808.238 C 4553 808.238 5009 339.762 5464 339.762" fill="none" stroke="rgb(96, 85, 198)" stroke-opacity="0" stroke-width="19" transform="matrix(1,0,0,1,-113.65119934082031,0)" style="fill:none;stroke:rgb(96, 85, 198);transform:matrix(1, 0, 0, 1, -113.651, 0);;animation:none"></path>
<path d="M 0 340.15 C 455 340.15 911 807.85 1366 807.85 C 1821 807.85 2277 340.15 2732 340.15 C 3187 340.15 3643 807.85 4098 807.85 C 4553 807.85 5009 340.15 5464 340.15" fill="none" stroke="rgb(95, 86, 198)" stroke-opacity="0" stroke-width="19" transform="matrix(1,0,0,1,-118.02239990234375,0)" style="fill:none;stroke:rgb(95, 86, 198);transform:matrix(1, 0, 0, 1, -118.022, 0);;animation:none"></path>
<path d="M 0 340.556 C 455 340.556 911 807.444 1366 807.444 C 1821 807.444 2277 340.556 2732 340.556 C 3187 340.556 3643 807.444 4098 807.444 C 4553 807.444 5009 340.556 5464 340.556" fill="none" stroke="rgb(95, 86, 198)" stroke-opacity="0" stroke-width="19" transform="matrix(1,0,0,1,-122.39359283447266,0)" style="fill:none;stroke:rgb(95, 86, 198);transform:matrix(1, 0, 0, 1, -122.394, 0);;animation:none"></path>
<path d="M 0 340.978 C 455 340.978 911 807.022 1366 807.022 C 1821 807.022 2277 340.978 2732 340.978 C 3187 340.978 3643 807.022 4098 807.022 C 4553 807.022 5009 340.978 5464 340.978" fill="none" stroke="rgb(95, 86, 198)" stroke-opacity="0" stroke-width="19" transform="matrix(1,0,0,1,-126.76480102539062,0)" style="fill:none;stroke:rgb(95, 86, 198);transform:matrix(1, 0, 0, 1, -126.765, 0);;animation:none"></path>
<path d="M 0 341.417 C 455 341.417 911 806.583 1366 806.583 C 1821 806.583 2277 341.417 2732 341.417 C 3187 341.417 3643 806.583 4098 806.583 C 4553 806.583 5009 341.417 5464 341.417" fill="none" stroke="rgb(95, 87, 198)" stroke-opacity="0" stroke-width="19" transform="matrix(1,0,0,1,-131.13600158691406,0)" style="fill:none;stroke:rgb(95, 87, 198);transform:matrix(1, 0, 0, 1, -131.136, 0);;animation:none"></path>
<path d="M 0 341.873 C 455 341.873 911 806.127 1366 806.127 C 1821 806.127 2277 341.873 2732 341.873 C 3187 341.873 3643 806.127 4098 806.127 C 4553 806.127 5009 341.873 5464 341.873" fill="none" stroke="rgb(94, 87, 199)" stroke-opacity="0" stroke-width="19" transform="matrix(1,0,0,1,-135.5072021484375,0)" style="fill:none;stroke:rgb(94, 87, 199);transform:matrix(1, 0, 0, 1, -135.507, 0);;animation:none"></path>
<path d="M 0 342.346 C 455 342.346 911 805.654 1366 805.654 C 1821 805.654 2277 342.346 2732 342.346 C 3187 342.346 3643 805.654 4098 805.654 C 4553 805.654 5009 342.346 5464 342.346" fill="none" stroke="rgb(94, 87, 199)" stroke-opacity="0" stroke-width="19" transform="matrix(1,0,0,1,-139.87840270996094,0)" style="fill:none;stroke:rgb(94, 87, 199);transform:matrix(1, 0, 0, 1, -139.878, 0);;animation:none"></path>
<path d="M 0 342.836 C 455 342.836 911 805.164 1366 805.164 C 1821 805.164 2277 342.836 2732 342.836 C 3187 342.836 3643 805.164 4098 805.164 C 4553 805.164 5009 342.836 5464 342.836" fill="none" stroke="rgb(94, 88, 199)" stroke-opacity="0" stroke-width="19" transform="matrix(1,0,0,1,-144.24960327148438,0)" style="fill:none;stroke:rgb(94, 88, 199);transform:matrix(1, 0, 0, 1, -144.25, 0);;animation:none"></path>
<path d="M 0 343.343 C 455 343.343 911 804.657 1366 804.657 C 1821 804.657 2277 343.343 2732 343.343 C 3187 343.343 3643 804.657 4098 804.657 C 4553 804.657 5009 343.343 5464 343.343" fill="none" stroke="rgb(94, 88, 199)" stroke-opacity="0" stroke-width="19" transform="matrix(1,0,0,1,-148.6208038330078,0)" style="fill:none;stroke:rgb(94, 88, 199);transform:matrix(1, 0, 0, 1, -148.621, 0);;animation:none"></path>
<path d="M 0 343.869 C 455 343.869 911 804.131 1366 804.131 C 1821 804.131 2277 343.869 2732 343.869 C 3187 343.869 3643 804.131 4098 804.131 C 4553 804.131 5009 343.869 5464 343.869" fill="none" stroke="rgb(93, 88, 199)" stroke-opacity="0" stroke-width="19" transform="matrix(1,0,0,1,-152.99131774902344,0)" style="fill:none;stroke:rgb(93, 88, 199);transform:matrix(1, 0, 0, 1, -152.991, 0);;animation:none"></path>
<path d="M 0 344.412 C 455 344.412 911 803.588 1366 803.588 C 1821 803.588 2277 344.412 2732 344.412 C 3187 344.412 3643 803.588 4098 803.588 C 4553 803.588 5009 344.412 5464 344.412" fill="none" stroke="rgb(93, 89, 199)" stroke-opacity="0" stroke-width="19" transform="matrix(1,0,0,1,-157.36318969726562,0)" style="fill:none;stroke:rgb(93, 89, 199);transform:matrix(1, 0, 0, 1, -157.363, 0);;animation:none"></path>
<path d="M 0 344.972 C 455 344.972 911 803.028 1366 803.028 C 1821 803.028 2277 344.972 2732 344.972 C 3187 344.972 3643 803.028 4098 803.028 C 4553 803.028 5009 344.972 5464 344.972" fill="none" stroke="rgb(93, 89, 199)" stroke-opacity="0" stroke-width="19" transform="matrix(1,0,0,1,-161.73440551757812,0)" style="fill:none;stroke:rgb(93, 89, 199);transform:matrix(1, 0, 0, 1, -161.734, 0);;animation:none"></path>
<path d="M 0 345.551 C 455 345.551 911 802.449 1366 802.449 C 1821 802.449 2277 345.551 2732 345.551 C 3187 345.551 3643 802.449 4098 802.449 C 4553 802.449 5009 345.551 5464 345.551" fill="none" stroke="rgb(92, 90, 199)" stroke-opacity="0" stroke-width="19" transform="matrix(1,0,0,1,-166.10560607910156,0)" style="fill:none;stroke:rgb(92, 90, 199);transform:matrix(1, 0, 0, 1, -166.106, 0);;animation:none"></path>
<path d="M 0 346.148 C 455 346.148 911 801.852 1366 801.852 C 1821 801.852 2277 346.148 2732 346.148 C 3187 346.148 3643 801.852 4098 801.852 C 4553 801.852 5009 346.148 5464 346.148" fill="none" stroke="rgb(92, 90, 200)" stroke-opacity="0" stroke-width="19" transform="matrix(1,0,0,1,-170.47679138183594,0)" style="fill:none;stroke:rgb(92, 90, 200);transform:matrix(1, 0, 0, 1, -170.477, 0);;animation:none"></path>
<path d="M 0 346.764 C 455 346.764 911 801.236 1366 801.236 C 1821 801.236 2277 346.764 2732 346.764 C 3187 346.764 3643 801.236 4098 801.236 C 4553 801.236 5009 346.764 5464 346.764" fill="none" stroke="rgb(92, 91, 200)" stroke-opacity="0" stroke-width="19" transform="matrix(1,0,0,1,-174.84800720214844,0)" style="fill:none;stroke:rgb(92, 91, 200);transform:matrix(1, 0, 0, 1, -174.848, 0);;animation:none"></path>
<path d="M 0 347.398 C 455 347.398 911 800.602 1366 800.602 C 1821 800.602 2277 347.398 2732 347.398 C 3187 347.398 3643 800.602 4098 800.602 C 4553 800.602 5009 347.398 5464 347.398" fill="none" stroke="rgb(91, 91, 200)" stroke-opacity="0" stroke-width="19" transform="matrix(1,0,0,1,-179.218505859375,0)" style="fill:none;stroke:rgb(91, 91, 200);transform:matrix(1, 0, 0, 1, -179.219, 0);;animation:none"></path>
<path d="M 0 348.051 C 455 348.051 911 799.949 1366 799.949 C 1821 799.949 2277 348.051 2732 348.051 C 3187 348.051 3643 799.949 4098 799.949 C 4553 799.949 5009 348.051 5464 348.051" fill="none" stroke="rgb(91, 92, 200)" stroke-opacity="0" stroke-width="19" transform="matrix(1,0,0,1,-183.59039306640625,0)" style="fill:none;stroke:rgb(91, 92, 200);transform:matrix(1, 0, 0, 1, -183.59, 0);;animation:none"></path>
<path d="M 0 348.722 C 455 348.722 911 799.278 1366 799.278 C 1821 799.278 2277 348.722 2732 348.722 C 3187 348.722 3643 799.278 4098 799.278 C 4553 799.278 5009 348.722 5464 348.722" fill="none" stroke="rgb(91, 92, 200)" stroke-opacity="0" stroke-width="19" transform="matrix(1,0,0,1,-187.96160888671875,0)" style="fill:none;stroke:rgb(91, 92, 200);transform:matrix(1, 0, 0, 1, -187.962, 0);;animation:none"></path>
<path d="M 0 349.413 C 455 349.413 911 798.587 1366 798.587 C 1821 798.587 2277 349.413 2732 349.413 C 3187 349.413 3643 798.587 4098 798.587 C 4553 798.587 5009 349.413 5464 349.413" fill="none" stroke="rgb(90, 93, 200)" stroke-opacity="0" stroke-width="19" transform="matrix(1,0,0,1,-192.33279418945312,0)" style="fill:none;stroke:rgb(90, 93, 200);transform:matrix(1, 0, 0, 1, -192.333, 0);;animation:none"></path>
<path d="M 0 350.122 C 455 350.122 911 797.878 1366 797.878 C 1821 797.878 2277 350.122 2732 350.122 C 3187 350.122 3643 797.878 4098 797.878 C 4553 797.878 5009 350.122 5464 350.122" fill="none" stroke="rgb(90, 93, 201)" stroke-opacity="0" stroke-width="19" transform="matrix(1,0,0,1,-196.70399475097656,0)" style="fill:none;stroke:rgb(90, 93, 201);transform:matrix(1, 0, 0, 1, -196.704, 0);;animation:none"></path>
<path d="M 0 350.852 C 455 350.852 911 797.148 1366 797.148 C 1821 797.148 2277 350.852 2732 350.852 C 3187 350.852 3643 797.148 4098 797.148 C 4553 797.148 5009 350.852 5464 350.852" fill="none" stroke="rgb(89, 94, 201)" stroke-opacity="0" stroke-width="19" transform="matrix(1,0,0,1,-201.07521057128906,0)" style="fill:none;stroke:rgb(89, 94, 201);transform:matrix(1, 0, 0, 1, -201.075, 0);;animation:none"></path>
<path d="M 0 351.6 C 455 351.6 911 796.4 1366 796.4 C 1821 796.4 2277 351.6 2732 351.6 C 3187 351.6 3643 796.4 4098 796.4 C 4553 796.4 5009 351.6 5464 351.6" fill="none" stroke="rgb(89, 94, 201)" stroke-opacity="0" stroke-width="19" transform="matrix(1,0,0,1,-205.44639587402344,0)" style="fill:none;stroke:rgb(89, 94, 201);transform:matrix(1, 0, 0, 1, -205.446, 0);;animation:none"></path>
<path d="M 0 352.368 C 455 352.368 911 795.632 1366 795.632 C 1821 795.632 2277 352.368 2732 352.368 C 3187 352.368 3643 795.632 4098 795.632 C 4553 795.632 5009 352.368 5464 352.368" fill="none" stroke="rgb(89, 95, 201)" stroke-opacity="0" stroke-width="19" transform="matrix(1,0,0,1,-209.81761169433594,0)" style="fill:none;stroke:rgb(89, 95, 201);transform:matrix(1, 0, 0, 1, -209.818, 0);;animation:none"></path>
<path d="M 0 353.157 C 455 353.157 911 794.843 1366 794.843 C 1821 794.843 2277 353.157 2732 353.157 C 3187 353.157 3643 794.843 4098 794.843 C 4553 794.843 5009 353.157 5464 353.157" fill="none" stroke="rgb(88, 96, 201)" stroke-opacity="0" stroke-width="19" transform="matrix(1,0,0,1,-214.1887969970703,0)" style="fill:none;stroke:rgb(88, 96, 201);transform:matrix(1, 0, 0, 1, -214.189, 0);;animation:none"></path>
<path d="M 0 353.965 C 455 353.965 911 794.035 1366 794.035 C 1821 794.035 2277 353.965 2732 353.965 C 3187 353.965 3643 794.035 4098 794.035 C 4553 794.035 5009 353.965 5464 353.965" fill="none" stroke="rgb(88, 96, 202)" stroke-opacity="0" stroke-width="19" transform="matrix(1,0,0,1,-218.55999755859375,0)" style="fill:none;stroke:rgb(88, 96, 202);transform:matrix(1, 0, 0, 1, -218.56, 0);;animation:none"></path>
<path d="M 0 354.793 C 455 354.793 911 793.207 1366 793.207 C 1821 793.207 2277 354.793 2732 354.793 C 3187 354.793 3643 793.207 4098 793.207 C 4553 793.207 5009 354.793 5464 354.793" fill="none" stroke="rgb(87, 97, 202)" stroke-opacity="0" stroke-width="19" transform="matrix(1,0,0,1,-222.93121337890625,0)" style="fill:none;stroke:rgb(87, 97, 202);transform:matrix(1, 0, 0, 1, -222.931, 0);;animation:none"></path>
<path d="M 0 355.642 C 455 355.642 911 792.358 1366 792.358 C 1821 792.358 2277 355.642 2732 355.642 C 3187 355.642 3643 792.358 4098 792.358 C 4553 792.358 5009 355.642 5464 355.642" fill="none" stroke="rgb(87, 98, 202)" stroke-opacity="0" stroke-width="19" transform="matrix(1,0,0,1,-227.30239868164062,0)" style="fill:none;stroke:rgb(87, 98, 202);transform:matrix(1, 0, 0, 1, -227.302, 0);;animation:none"></path>
<path d="M 0 356.511 C 455 356.511 911 791.489 1366 791.489 C 1821 791.489 2277 356.511 2732 356.511 C 3187 356.511 3643 791.489 4098 791.489 C 4553 791.489 5009 356.511 5464 356.511" fill="none" stroke="rgb(86, 98, 202)" stroke-opacity="0" stroke-width="19" transform="matrix(1,0,0,1,-231.67359924316406,0)" style="fill:none;stroke:rgb(86, 98, 202);transform:matrix(1, 0, 0, 1, -231.674, 0);;animation:none"></path>
<path d="M 0 357.402 C 455 357.402 911 790.599 1366 790.599 C 1821 790.599 2277 357.402 2732 357.402 C 3187 357.402 3643 790.599 4098 790.599 C 4553 790.599 5009 357.402 5464 357.402" fill="none" stroke="rgb(86, 99, 203)" stroke-opacity="0" stroke-width="19" transform="matrix(1,0,0,1,-236.0447998046875,0)" style="fill:none;stroke:rgb(86, 99, 203);transform:matrix(1, 0, 0, 1, -236.045, 0);;animation:none"></path>
<path d="M 0 358.313 C 455 358.313 911 789.688 1366 789.688 C 1821 789.688 2277 358.312 2732 358.312 C 3187 358.312 3643 789.688 4098 789.688 C 4553 789.688 5009 358.312 5464 358.312" fill="none" stroke="rgb(85, 100, 203)" stroke-opacity="0" stroke-width="19" transform="matrix(1,0,0,1,-240.41600036621094,0)" style="fill:none;stroke:rgb(85, 100, 203);transform:matrix(1, 0, 0, 1, -240.416, 0);;animation:none"></path>
<path d="M 0 359.245 C 455 359.245 911 788.755 1366 788.755 C 1821 788.755 2277 359.245 2732 359.245 C 3187 359.245 3643 788.755 4098 788.755 C 4553 788.755 5009 359.245 5464 359.245" fill="none" stroke="rgb(85, 101, 203)" stroke-opacity="0" stroke-width="19" transform="matrix(1,0,0,1,-244.7871856689453,0)" style="fill:none;stroke:rgb(85, 101, 203);transform:matrix(1, 0, 0, 1, -244.787, 0);;animation:none"></path>
<path d="M 0 360.198 C 455 360.198 911 787.802 1366 787.802 C 1821 787.802 2277 360.198 2732 360.198 C 3187 360.198 3643 787.802 4098 787.802 C 4553 787.802 5009 360.198 5464 360.198" fill="none" stroke="rgb(84, 101, 203)" stroke-opacity="0" stroke-width="19" transform="matrix(1,0,0,1,-249.15771484375,0)" style="fill:none;stroke:rgb(84, 101, 203);transform:matrix(1, 0, 0, 1, -249.158, 0);;animation:none"></path>
<path d="M 0 361.173 C 455 361.173 911 786.827 1366 786.827 C 1821 786.827 2277 361.173 2732 361.173 C 3187 361.173 3643 786.827 4098 786.827 C 4553 786.827 5009 361.173 5464 361.173" fill="none" stroke="rgb(83, 102, 204)" stroke-opacity="0" stroke-width="19" transform="matrix(1,0,0,1,-253.52960205078125,0)" style="fill:none;stroke:rgb(83, 102, 204);transform:matrix(1, 0, 0, 1, -253.53, 0);;animation:none"></path>
<path d="M 0 362.169 C 455 362.169 911 785.831 1366 785.831 C 1821 785.831 2277 362.169 2732 362.169 C 3187 362.169 3643 785.831 4098 785.831 C 4553 785.831 5009 362.169 5464 362.169" fill="none" stroke="rgb(83, 103, 204)" stroke-opacity="0" stroke-width="19" transform="matrix(1,0,0,1,-257.90081787109375,0)" style="fill:none;stroke:rgb(83, 103, 204);transform:matrix(1, 0, 0, 1, -257.901, 0);;animation:none"></path>
<path d="M 0 363.187 C 455 363.187 911 784.813 1366 784.813 C 1821 784.813 2277 363.187 2732 363.187 C 3187 363.187 3643 784.813 4098 784.813 C 4553 784.813 5009 363.187 5464 363.187" fill="none" stroke="rgb(82, 104, 204)" stroke-opacity="0" stroke-width="19" transform="matrix(1,0,0,1,-262.2720031738281,0)" style="fill:none;stroke:rgb(82, 104, 204);transform:matrix(1, 0, 0, 1, -262.272, 0);;animation:none"></path>
<path d="M 0 364.227 C 455 364.227 911 783.773 1366 783.773 C 1821 783.773 2277 364.227 2732 364.227 C 3187 364.227 3643 783.773 4098 783.773 C 4553 783.773 5009 364.227 5464 364.227" fill="none" stroke="rgb(82, 105, 204)" stroke-opacity="0" stroke-width="19" transform="matrix(1,0,0,1,-266.6431884765625,0)" style="fill:none;stroke:rgb(82, 105, 204);transform:matrix(1, 0, 0, 1, -266.643, 0);;animation:none"></path>
<path d="M 0 365.289 C 455 365.289 911 782.711 1366 782.711 C 1821 782.711 2277 365.289 2732 365.289 C 3187 365.289 3643 782.711 4098 782.711 C 4553 782.711 5009 365.289 5464 365.289" fill="none" stroke="rgb(81, 105, 205)" stroke-opacity="0" stroke-width="19" transform="matrix(1,0,0,1,-271.014404296875,0)" style="fill:none;stroke:rgb(81, 105, 205);transform:matrix(1, 0, 0, 1, -271.014, 0);;animation:none"></path>
<path d="M 0 366.374 C 455 366.374 911 781.626 1366 781.626 C 1821 781.626 2277 366.374 2732 366.374 C 3187 366.374 3643 781.626 4098 781.626 C 4553 781.626 5009 366.374 5464 366.374" fill="none" stroke="rgb(80, 106, 205)" stroke-opacity="0" stroke-width="19" transform="matrix(1,0,0,1,-275.3855895996094,0)" style="fill:none;stroke:rgb(80, 106, 205);transform:matrix(1, 0, 0, 1, -275.386, 0);;animation:none"></path>
<path d="M 0 367.481 C 455 367.481 911 780.519 1366 780.519 C 1821 780.519 2277 367.481 2732 367.481 C 3187 367.481 3643 780.519 4098 780.519 C 4553 780.519 5009 367.481 5464 367.481" fill="none" stroke="rgb(80, 107, 205)" stroke-opacity="0" stroke-width="19" transform="matrix(1,0,0,1,-279.7568054199219,0)" style="fill:none;stroke:rgb(80, 107, 205);transform:matrix(1, 0, 0, 1, -279.757, 0);;animation:none"></path>
<path d="M 0 368.61 C 455 368.61 911 779.39 1366 779.39 C 1821 779.39 2277 368.61 2732 368.61 C 3187 368.61 3643 779.39 4098 779.39 C 4553 779.39 5009 368.61 5464 368.61" fill="none" stroke="rgb(79, 108, 205)" stroke-opacity="0" stroke-width="19" transform="matrix(1,0,0,1,-284.12799072265625,0)" style="fill:none;stroke:rgb(79, 108, 205);transform:matrix(1, 0, 0, 1, -284.128, 0);;animation:none"></path>
<path d="M 0 369.763 C 455 369.763 911 778.237 1366 778.237 C 1821 778.237 2277 369.763 2732 369.763 C 3187 369.763 3643 778.237 4098 778.237 C 4553 778.237 5009 369.763 5464 369.763" fill="none" stroke="rgb(78, 109, 206)" stroke-opacity="0" stroke-width="19" transform="matrix(1,0,0,1,-288.49920654296875,0)" style="fill:none;stroke:rgb(78, 109, 206);transform:matrix(1, 0, 0, 1, -288.499, 0);;animation:none"></path>
<path d="M 0 370.938 C 455 370.938 911 777.062 1366 777.062 C 1821 777.062 2277 370.938 2732 370.938 C 3187 370.938 3643 777.062 4098 777.062 C 4553 777.062 5009 370.938 5464 370.938" fill="none" stroke="rgb(78, 110, 206)" stroke-opacity="0" stroke-width="19" transform="matrix(1,0,0,1,-292.8703918457031,0)" style="fill:none;stroke:rgb(78, 110, 206);transform:matrix(1, 0, 0, 1, -292.87, 0);;animation:none"></path>
<path d="M 0 372.137 C 455 372.137 911 775.863 1366 775.863 C 1821 775.863 2277 372.137 2732 372.137 C 3187 372.137 3643 775.863 4098 775.863 C 4553 775.863 5009 372.137 5464 372.137" fill="none" stroke="rgb(77, 111, 206)" stroke-opacity="0" stroke-width="19" transform="matrix(1,0,0,1,-297.2416076660156,0)" style="fill:none;stroke:rgb(77, 111, 206);transform:matrix(1, 0, 0, 1, -297.242, 0);;animation:none"></path>
<path d="M 0 373.359 C 455 373.359 911 774.641 1366 774.641 C 1821 774.641 2277 373.359 2732 373.359 C 3187 373.359 3643 774.641 4098 774.641 C 4553 774.641 5009 373.359 5464 373.359" fill="none" stroke="rgb(76, 112, 207)" stroke-opacity="0" stroke-width="19" transform="matrix(1,0,0,1,-301.61279296875,0)" style="fill:none;stroke:rgb(76, 112, 207);transform:matrix(1, 0, 0, 1, -301.613, 0);;animation:none"></path>
<path d="M 0 374.604 C 455 374.604 911 773.396 1366 773.396 C 1821 773.396 2277 374.604 2732 374.604 C 3187 374.604 3643 773.396 4098 773.396 C 4553 773.396 5009 374.604 5464 374.604" fill="none" stroke="rgb(76, 113, 207)" stroke-opacity="0" stroke-width="19" transform="matrix(1,0,0,1,-305.9833068847656,0)" style="fill:none;stroke:rgb(76, 113, 207);transform:matrix(1, 0, 0, 1, -305.983, 0);;animation:none"></path>
<path d="M 0 375.873 C 455 375.873 911 772.127 1366 772.127 C 1821 772.127 2277 375.873 2732 375.873 C 3187 375.873 3643 772.127 4098 772.127 C 4553 772.127 5009 375.873 5464 375.873" fill="none" stroke="rgb(75, 114, 207)" stroke-opacity="0" stroke-width="19" transform="matrix(1,0,0,1,-310.3545227050781,0)" style="fill:none;stroke:rgb(75, 114, 207);transform:matrix(1, 0, 0, 1, -310.355, 0);;animation:none"></path>
<path d="M 0 377.166 C 455 377.166 911 770.834 1366 770.834 C 1821 770.834 2277 377.166 2732 377.166 C 3187 377.166 3643 770.834 4098 770.834 C 4553 770.834 5009 377.166 5464 377.166" fill="none" stroke="rgb(74, 115, 208)" stroke-opacity="0" stroke-width="19" transform="matrix(1,0,0,1,-314.72637939453125,0)" style="fill:none;stroke:rgb(74, 115, 208);transform:matrix(1, 0, 0, 1, -314.726, 0);;animation:none"></path>
<path d="M 0 378.483 C 455 378.483 911 769.516 1366 769.516 C 1821 769.516 2277 378.483 2732 378.483 C 3187 378.483 3643 769.516 4098 769.516 C 4553 769.516 5009 378.483 5464 378.483" fill="none" stroke="rgb(74, 115, 208)" stroke-opacity="0" stroke-width="19" transform="matrix(1,0,0,1,-319.09759521484375,0)" style="fill:none;stroke:rgb(74, 115, 208);transform:matrix(1, 0, 0, 1, -319.098, 0);;animation:none"></path>
<path d="M 0 379.825 C 455 379.825 911 768.175 1366 768.175 C 1821 768.175 2277 379.825 2732 379.825 C 3187 379.825 3643 768.175 4098 768.175 C 4553 768.175 5009 379.825 5464 379.825" fill="none" stroke="rgb(73, 116, 208)" stroke-opacity="0" stroke-width="19" transform="matrix(1,0,0,1,-323.46881103515625,0)" style="fill:none;stroke:rgb(73, 116, 208);transform:matrix(1, 0, 0, 1, -323.469, 0);;animation:none"></path>
<path d="M 0 381.19 C 455 381.19 911 766.81 1366 766.81 C 1821 766.81 2277 381.19 2732 381.19 C 3187 381.19 3643 766.81 4098 766.81 C 4553 766.81 5009 381.19 5464 381.19" fill="none" stroke="rgb(72, 117, 209)" stroke-opacity="0" stroke-width="19" transform="matrix(1,0,0,1,-327.8399963378906,0)" style="fill:none;stroke:rgb(72, 117, 209);transform:matrix(1, 0, 0, 1, -327.84, 0);;animation:none"></path>
<path d="M 0 382.581 C 455 382.581 911 765.419 1366 765.419 C 1821 765.419 2277 382.581 2732 382.581 C 3187 382.581 3643 765.419 4098 765.419 C 4553 765.419 5009 382.581 5464 382.581" fill="none" stroke="rgb(72, 118, 209)" stroke-opacity="0" stroke-width="19" transform="matrix(1,0,0,1,-332.2112121582031,0)" style="fill:none;stroke:rgb(72, 118, 209);transform:matrix(1, 0, 0, 1, -332.211, 0);;animation:none"></path>
<path d="M 0 383.995 C 455 383.995 911 764.005 1366 764.005 C 1821 764.005 2277 383.995 2732 383.995 C 3187 383.995 3643 764.005 4098 764.005 C 4553 764.005 5009 383.995 5464 383.995" fill="none" stroke="rgb(71, 119, 209)" stroke-opacity="0" stroke-width="19" transform="matrix(1,0,0,1,-336.5823974609375,0)" style="fill:none;stroke:rgb(71, 119, 209);transform:matrix(1, 0, 0, 1, -336.582, 0);;animation:none"></path>
<path d="M 0 385.435 C 455 385.435 911 762.565 1366 762.565 C 1821 762.565 2277 385.435 2732 385.435 C 3187 385.435 3643 762.565 4098 762.565 C 4553 762.565 5009 385.435 5464 385.435" fill="none" stroke="rgb(70, 120, 209)" stroke-opacity="0" stroke-width="19" transform="matrix(1,0,0,1,-340.9535827636719,0)" style="fill:none;stroke:rgb(70, 120, 209);transform:matrix(1, 0, 0, 1, -340.954, 0);;animation:none"></path>
<path d="M 0 386.9 C 455 386.9 911 761.1 1366 761.1 C 1821 761.1 2277 386.9 2732 386.9 C 3187 386.9 3643 761.1 4098 761.1 C 4553 761.1 5009 386.9 5464 386.9" fill="none" stroke="rgb(69, 121, 210)" stroke-opacity="0" stroke-width="19" transform="matrix(1,0,0,1,-345.32476806640625,0)" style="fill:none;stroke:rgb(69, 121, 210);transform:matrix(1, 0, 0, 1, -345.325, 0);;animation:none"></path>
<path d="M 0 388.389 C 455 388.389 911 759.611 1366 759.611 C 1821 759.611 2277 388.389 2732 388.389 C 3187 388.389 3643 759.611 4098 759.611 C 4553 759.611 5009 388.389 5464 388.389" fill="none" stroke="rgb(69, 122, 210)" stroke-opacity="0" stroke-width="19" transform="matrix(1,0,0,1,-349.6960144042969,0)" style="fill:none;stroke:rgb(69, 122, 210);transform:matrix(1, 0, 0, 1, -349.696, 0);;animation:none"></path>
<path d="M 0 389.904 C 455 389.904 911 758.096 1366 758.096 C 1821 758.096 2277 389.904 2732 389.904 C 3187 389.904 3643 758.096 4098 758.096 C 4553 758.096 5009 389.904 5464 389.904" fill="none" stroke="rgb(68, 123, 210)" stroke-opacity="0" stroke-width="19" transform="matrix(1,0,0,1,-354.06719970703125,0)" style="fill:none;stroke:rgb(68, 123, 210);transform:matrix(1, 0, 0, 1, -354.067, 0);;animation:none"></path>
<path d="M 0 391.445 C 455 391.445 911 756.555 1366 756.555 C 1821 756.555 2277 391.445 2732 391.445 C 3187 391.445 3643 756.555 4098 756.555 C 4553 756.555 5009 391.445 5464 391.445" fill="none" stroke="rgb(67, 124, 211)" stroke-opacity="0" stroke-width="19" transform="matrix(1,0,0,1,-358.4377136230469,0)" style="fill:none;stroke:rgb(67, 124, 211);transform:matrix(1, 0, 0, 1, -358.438, 0);;animation:none"></path>
<path d="M 0 393.011 C 455 393.011 911 754.989 1366 754.989 C 1821 754.989 2277 393.011 2732 393.011 C 3187 393.011 3643 754.989 4098 754.989 C 4553 754.989 5009 393.011 5464 393.011" fill="none" stroke="rgb(67, 125, 211)" stroke-opacity="0" stroke-width="19" transform="matrix(1,0,0,1,-362.8096008300781,0)" style="fill:none;stroke:rgb(67, 125, 211);transform:matrix(1, 0, 0, 1, -362.81, 0);;animation:none"></path>
<path d="M 0 394.602 C 455 394.602 911 753.398 1366 753.398 C 1821 753.398 2277 394.602 2732 394.602 C 3187 394.602 3643 753.398 4098 753.398 C 4553 753.398 5009 394.602 5464 394.602" fill="none" stroke="rgb(66, 126, 211)" stroke-opacity="0" stroke-width="19" transform="matrix(1,0,0,1,-367.1807861328125,0)" style="fill:none;stroke:rgb(66, 126, 211);transform:matrix(1, 0, 0, 1, -367.181, 0);;animation:none"></path>
<path d="M 0 396.22 C 455 396.22 911 751.78 1366 751.78 C 1821 751.78 2277 396.22 2732 396.22 C 3187 396.22 3643 751.78 4098 751.78 C 4553 751.78 5009 396.22 5464 396.22" fill="none" stroke="rgb(65, 127, 212)" stroke-opacity="0" stroke-width="19" transform="matrix(1,0,0,1,-371.5520324707031,0)" style="fill:none;stroke:rgb(65, 127, 212);transform:matrix(1, 0, 0, 1, -371.552, 0);;animation:none"></path>
<path d="M 0 397.864 C 455 397.864 911 750.136 1366 750.136 C 1821 750.136 2277 397.863 2732 397.863 C 3187 397.863 3643 750.136 4098 750.136 C 4553 750.136 5009 397.863 5464 397.863" fill="none" stroke="rgb(64, 128, 212)" stroke-opacity="0" stroke-width="19" transform="matrix(1,0,0,1,-375.9232177734375,0)" style="fill:none;stroke:rgb(64, 128, 212);transform:matrix(1, 0, 0, 1, -375.923, 0);;animation:none"></path>
<path d="M 0 399.533 C 455 399.533 911 748.467 1366 748.467 C 1821 748.467 2277 399.533 2732 399.533 C 3187 399.533 3643 748.467 4098 748.467 C 4553 748.467 5009 399.533 5464 399.533" fill="none" stroke="rgb(64, 129, 212)" stroke-opacity="0" stroke-width="19" transform="matrix(1,0,0,1,-380.2944030761719,0)" style="fill:none;stroke:rgb(64, 129, 212);transform:matrix(1, 0, 0, 1, -380.294, 0);;animation:none"></path>
<path d="M 0 401.229 C 455 401.229 911 746.771 1366 746.771 C 1821 746.771 2277 401.229 2732 401.229 C 3187 401.229 3643 746.771 4098 746.771 C 4553 746.771 5009 401.229 5464 401.229" fill="none" stroke="rgb(63, 130, 213)" stroke-opacity="0" stroke-width="19" transform="matrix(1,0,0,1,-384.66558837890625,0)" style="fill:none;stroke:rgb(63, 130, 213);transform:matrix(1, 0, 0, 1, -384.666, 0);;animation:none"></path>
<path d="M 0 402.951 C 455 402.951 911 745.049 1366 745.049 C 1821 745.049 2277 402.951 2732 402.951 C 3187 402.951 3643 745.049 4098 745.049 C 4553 745.049 5009 402.951 5464 402.951" fill="none" stroke="rgb(62, 131, 213)" stroke-opacity="0" stroke-width="19" transform="matrix(1,0,0,1,-389.03680419921875,0)" style="fill:none;stroke:rgb(62, 131, 213);transform:matrix(1, 0, 0, 1, -389.037, 0);;animation:none"></path>
<path d="M 0 404.699 C 455 404.699 911 743.301 1366 743.301 C 1821 743.301 2277 404.699 2732 404.699 C 3187 404.699 3643 743.301 4098 743.301 C 4553 743.301 5009 404.699 5464 404.699" fill="none" stroke="rgb(62, 132, 213)" stroke-opacity="0" stroke-width="19" transform="matrix(1,0,0,1,-393.4079895019531,0)" style="fill:none;stroke:rgb(62, 132, 213);transform:matrix(1, 0, 0, 1, -393.408, 0);;animation:none"></path>
<path d="M 0 406.474 C 455 406.474 911 741.526 1366 741.526 C 1821 741.526 2277 406.474 2732 406.474 C 3187 406.474 3643 741.526 4098 741.526 C 4553 741.526 5009 406.474 5464 406.474" fill="none" stroke="rgb(61, 133, 213)" stroke-opacity="0" stroke-width="19" transform="matrix(1,0,0,1,-397.7792053222656,0)" style="fill:none;stroke:rgb(61, 133, 213);transform:matrix(1, 0, 0, 1, -397.779, 0);;animation:none"></path>
<path d="M 0 408.276 C 455 408.276 911 739.724 1366 739.724 C 1821 739.724 2277 408.276 2732 408.276 C 3187 408.276 3643 739.724 4098 739.724 C 4553 739.724 5009 408.276 5464 408.276" fill="none" stroke="rgb(60, 134, 214)" stroke-opacity="0" stroke-width="19" transform="matrix(1,0,0,1,-402.1504211425781,0)" style="fill:none;stroke:rgb(60, 134, 214);transform:matrix(1, 0, 0, 1, -402.15, 0);;animation:none"></path>
<path d="M 0 410.104 C 455 410.104 911 737.896 1366 737.896 C 1821 737.896 2277 410.104 2732 410.104 C 3187 410.104 3643 737.896 4098 737.896 C 4553 737.896 5009 410.104 5464 410.104" fill="none" stroke="rgb(60, 135, 214)" stroke-opacity="0" stroke-width="19" transform="matrix(1,0,0,1,-406.5216064453125,0)" style="fill:none;stroke:rgb(60, 135, 214);transform:matrix(1, 0, 0, 1, -406.522, 0);;animation:none"></path>
<path d="M 0 411.959 C 455 411.959 911 736.041 1366 736.041 C 1821 736.041 2277 411.959 2732 411.959 C 3187 411.959 3643 736.041 4098 736.041 C 4553 736.041 5009 411.959 5464 411.959" fill="none" stroke="rgb(59, 135, 214)" stroke-opacity="0" stroke-width="19" transform="matrix(1,0,0,1,-410.8927917480469,0)" style="fill:none;stroke:rgb(59, 135, 214);transform:matrix(1, 0, 0, 1, -410.893, 0);;animation:none"></path>
<path d="M 0 413.841 C 455 413.841 911 734.159 1366 734.159 C 1821 734.159 2277 413.841 2732 413.841 C 3187 413.841 3643 734.159 4098 734.159 C 4553 734.159 5009 413.841 5464 413.841" fill="none" stroke="rgb(59, 136, 215)" stroke-opacity="0" stroke-width="19" transform="matrix(1,0,0,1,-415.26397705078125,0)" style="fill:none;stroke:rgb(59, 136, 215);transform:matrix(1, 0, 0, 1, -415.264, 0);;animation:none"></path>
<path d="M 0 415.749 C 455 415.749 911 732.251 1366 732.251 C 1821 732.251 2277 415.749 2732 415.749 C 3187 415.749 3643 732.251 4098 732.251 C 4553 732.251 5009 415.749 5464 415.749" fill="none" stroke="rgb(58, 137, 215)" stroke-opacity="0" stroke-width="19" transform="matrix(1,0,0,1,-419.6352233886719,0)" style="fill:none;stroke:rgb(58, 137, 215);transform:matrix(1, 0, 0, 1, -419.635, 0);;animation:none"></path>
<path d="M 0 417.685 C 455 417.685 911 730.315 1366 730.315 C 1821 730.315 2277 417.685 2732 417.685 C 3187 417.685 3643 730.315 4098 730.315 C 4553 730.315 5009 417.685 5464 417.685" fill="none" stroke="rgb(57, 138, 215)" stroke-opacity="0" stroke-width="19" transform="matrix(1,0,0,1,-424.00640869140625,0)" style="fill:none;stroke:rgb(57, 138, 215);transform:matrix(1, 0, 0, 1, -424.006, 0);;animation:none"></path>
<path d="M 0 419.648 C 455 419.648 911 728.352 1366 728.352 C 1821 728.352 2277 419.648 2732 419.648 C 3187 419.648 3643 728.352 4098 728.352 C 4553 728.352 5009 419.648 5464 419.648" fill="none" stroke="rgb(57, 139, 215)" stroke-opacity="0" stroke-width="19" transform="matrix(1,0,0,1,-428.3775939941406,0)" style="fill:none;stroke:rgb(57, 139, 215);transform:matrix(1, 0, 0, 1, -428.378, 0);;animation:none"></path>
<path d="M 0 421.637 C 455 421.637 911 726.363 1366 726.363 C 1821 726.363 2277 421.637 2732 421.637 C 3187 421.637 3643 726.363 4098 726.363 C 4553 726.363 5009 421.637 5464 421.637" fill="none" stroke="rgb(56, 140, 216)" stroke-opacity="0" stroke-width="19" transform="matrix(1,0,0,1,-432.7488098144531,0)" style="fill:none;stroke:rgb(56, 140, 216);transform:matrix(1, 0, 0, 1, -432.749, 0);;animation:none"></path>
<path d="M 0 423.654 C 455 423.654 911 724.346 1366 724.346 C 1821 724.346 2277 423.654 2732 423.654 C 3187 423.654 3643 724.346 4098 724.346 C 4553 724.346 5009 423.654 5464 423.654" fill="none" stroke="rgb(56, 140, 216)" stroke-opacity="0" stroke-width="19" transform="matrix(1,0,0,1,-437.1199951171875,0)" style="fill:none;stroke:rgb(56, 140, 216);transform:matrix(1, 0, 0, 1, -437.12, 0);;animation:none"></path>
<path d="M 0 425.697 C 455 425.697 911 722.303 1366 722.303 C 1821 722.303 2277 425.697 2732 425.697 C 3187 425.697 3643 722.303 4098 722.303 C 4553 722.303 5009 425.697 5464 425.697" fill="none" stroke="rgb(55, 141, 216)" stroke-opacity="0" stroke-width="19" transform="matrix(1,0,0,1,-441.4911804199219,0)" style="fill:none;stroke:rgb(55, 141, 216);transform:matrix(1, 0, 0, 1, -441.491, 0);;animation:none"></path>
<path d="M 0 427.768 C 455 427.768 911 720.232 1366 720.232 C 1821 720.232 2277 427.768 2732 427.768 C 3187 427.768 3643 720.232 4098 720.232 C 4553 720.232 5009 427.768 5464 427.768" fill="none" stroke="rgb(55, 142, 216)" stroke-opacity="0" stroke-width="19" transform="matrix(1,0,0,1,-445.8624267578125,0)" style="fill:none;stroke:rgb(55, 142, 216);transform:matrix(1, 0, 0, 1, -445.862, 0);;animation:none"></path>
<path d="M 0 429.865 C 455 429.865 911 718.135 1366 718.135 C 1821 718.135 2277 429.865 2732 429.865 C 3187 429.865 3643 718.135 4098 718.135 C 4553 718.135 5009 429.865 5464 429.865" fill="none" stroke="rgb(54, 143, 217)" stroke-opacity="0" stroke-width="19" transform="matrix(1,0,0,1,-450.2336120605469,0)" style="fill:none;stroke:rgb(54, 143, 217);transform:matrix(1, 0, 0, 1, -450.234, 0);;animation:none"></path>
<path d="M 0 431.99 C 455 431.99 911 716.01 1366 716.01 C 1821 716.01 2277 431.99 2732 431.99 C 3187 431.99 3643 716.01 4098 716.01 C 4553 716.01 5009 431.99 5464 431.99" fill="none" stroke="rgb(53, 143, 217)" stroke-opacity="0" stroke-width="19" transform="matrix(1,0,0,1,-454.60479736328125,0)" style="fill:none;stroke:rgb(53, 143, 217);transform:matrix(1, 0, 0, 1, -454.605, 0);;animation:none"></path>
<path d="M 0 434.141 C 455 434.141 911 713.859 1366 713.859 C 1821 713.859 2277 434.141 2732 434.141 C 3187 434.141 3643 713.859 4098 713.859 C 4553 713.859 5009 434.141 5464 434.141" fill="none" stroke="rgb(53, 144, 217)" stroke-opacity="0" stroke-width="19" transform="matrix(1,0,0,1,-458.9759826660156,0)" style="fill:none;stroke:rgb(53, 144, 217);transform:matrix(1, 0, 0, 1, -458.976, 0);;animation:none"></path>
<path d="M 0 436.32 C 455 436.32 911 711.68 1366 711.68 C 1821 711.68 2277 436.32 2732 436.32 C 3187 436.32 3643 711.68 4098 711.68 C 4553 711.68 5009 436.32 5464 436.32" fill="none" stroke="rgb(53, 145, 217)" stroke-opacity="0" stroke-width="19" transform="matrix(1,0,0,1,-463.3471984863281,0)" style="fill:none;stroke:rgb(53, 145, 217);transform:matrix(1, 0, 0, 1, -463.347, 0);;animation:none"></path>
<path d="M 0 438.525 C 455 438.525 911 709.475 1366 709.475 C 1821 709.475 2277 438.525 2732 438.525 C 3187 438.525 3643 709.475 4098 709.475 C 4553 709.475 5009 438.525 5464 438.525" fill="none" stroke="rgb(52, 145, 218)" stroke-opacity="0" stroke-width="19" transform="matrix(1,0,0,1,-467.7184143066406,0)" style="fill:none;stroke:rgb(52, 145, 218);transform:matrix(1, 0, 0, 1, -467.718, 0);;animation:none"></path>
<path d="M 0 440.757 C 455 440.757 911 707.243 1366 707.243 C 1821 707.243 2277 440.757 2732 440.757 C 3187 440.757 3643 707.243 4098 707.243 C 4553 707.243 5009 440.757 5464 440.757" fill="none" stroke="rgb(52, 146, 218)" stroke-opacity="0" stroke-width="19" transform="matrix(1,0,0,1,-472.089599609375,0)" style="fill:none;stroke:rgb(52, 146, 218);transform:matrix(1, 0, 0, 1, -472.09, 0);;animation:none"></path>
<path d="M 0 443.016 C 455 443.016 911 704.984 1366 704.984 C 1821 704.984 2277 443.016 2732 443.016 C 3187 443.016 3643 704.984 4098 704.984 C 4553 704.984 5009 443.016 5464 443.016" fill="none" stroke="rgb(51, 146, 218)" stroke-opacity="0" stroke-width="19" transform="matrix(1,0,0,1,-476.4608154296875,0)" style="fill:none;stroke:rgb(51, 146, 218);transform:matrix(1, 0, 0, 1, -476.461, 0);;animation:none"></path>
<path d="M 0 445.301 C 455 445.301 911 702.699 1366 702.699 C 1821 702.699 2277 445.301 2732 445.301 C 3187 445.301 3643 702.699 4098 702.699 C 4553 702.699 5009 445.301 5464 445.301" fill="none" stroke="rgb(51, 147, 218)" stroke-opacity="0" stroke-width="19" transform="matrix(1,0,0,1,-480.8320007324219,0)" style="fill:none;stroke:rgb(51, 147, 218);transform:matrix(1, 0, 0, 1, -480.832, 0);;animation:none"></path>
<path d="M 0 447.613 C 455 447.613 911 700.387 1366 700.387 C 1821 700.387 2277 447.612 2732 447.612 C 3187 447.612 3643 700.387 4098 700.387 C 4553 700.387 5009 447.612 5464 447.612" fill="none" stroke="rgb(50, 148, 218)" stroke-opacity="0" stroke-width="19" transform="matrix(1,0,0,1,-485.20318603515625,0)" style="fill:none;stroke:rgb(50, 148, 218);transform:matrix(1, 0, 0, 1, -485.203, 0);;animation:none"></path>
<path d="M 0 449.95 C 455 449.95 911 698.05 1366 698.05 C 1821 698.05 2277 449.95 2732 449.95 C 3187 449.95 3643 698.05 4098 698.05 C 4553 698.05 5009 449.95 5464 449.95" fill="none" stroke="rgb(50, 148, 218)" stroke-opacity="0" stroke-width="19" transform="matrix(1,0,0,1,-489.5743713378906,0)" style="fill:none;stroke:rgb(50, 148, 218);transform:matrix(1, 0, 0, 1, -489.574, 0);;animation:none"></path>
<path d="M 0 452.314 C 455 452.314 911 695.686 1366 695.686 C 1821 695.686 2277 452.314 2732 452.314 C 3187 452.314 3643 695.686 4098 695.686 C 4553 695.686 5009 452.314 5464 452.314" fill="none" stroke="rgb(49, 149, 219)" stroke-opacity="0" stroke-width="19" transform="matrix(1,0,0,1,-493.94561767578125,0)" style="fill:none;stroke:rgb(49, 149, 219);transform:matrix(1, 0, 0, 1, -493.946, 0);;animation:none"></path>
<path d="M 0 454.704 C 455 454.704 911 693.296 1366 693.296 C 1821 693.296 2277 454.704 2732 454.704 C 3187 454.704 3643 693.296 4098 693.296 C 4553 693.296 5009 454.704 5464 454.704" fill="none" stroke="rgb(49, 149, 219)" stroke-opacity="0" stroke-width="19" transform="matrix(1,0,0,1,-498.31610107421875,0)" style="fill:none;stroke:rgb(49, 149, 219);transform:matrix(1, 0, 0, 1, -498.316, 0);;animation:none"></path>
<path d="M 0 457.12 C 455 457.12 911 690.88 1366 690.88 C 1821 690.88 2277 457.12 2732 457.12 C 3187 457.12 3643 690.88 4098 690.88 C 4553 690.88 5009 457.12 5464 457.12" fill="none" stroke="rgb(49, 150, 219)" stroke-opacity="0" stroke-width="19" transform="matrix(1,0,0,1,-502.68798828125,0)" style="fill:none;stroke:rgb(49, 150, 219);transform:matrix(1, 0, 0, 1, -502.688, 0);;animation:none"></path>
<path d="M 0 459.561 C 455 459.561 911 688.439 1366 688.439 C 1821 688.439 2277 459.561 2732 459.561 C 3187 459.561 3643 688.439 4098 688.439 C 4553 688.439 5009 459.561 5464 459.561" fill="none" stroke="rgb(48, 150, 219)" stroke-opacity="0" stroke-width="19" transform="matrix(1,0,0,1,-507.0592041015625,0)" style="fill:none;stroke:rgb(48, 150, 219);transform:matrix(1, 0, 0, 1, -507.059, 0);;animation:none"></path>
<path d="M 0 462.028 C 455 462.028 911 685.972 1366 685.972 C 1821 685.972 2277 462.028 2732 462.028 C 3187 462.028 3643 685.972 4098 685.972 C 4553 685.972 5009 462.028 5464 462.028" fill="none" stroke="rgb(48, 151, 219)" stroke-opacity="0" stroke-width="19" transform="matrix(1,0,0,1,-511.4303894042969,0)" style="fill:none;stroke:rgb(48, 151, 219);transform:matrix(1, 0, 0, 1, -511.43, 0);;animation:none"></path>
<path d="M 0 464.519 C 455 464.519 911 683.481 1366 683.481 C 1821 683.481 2277 464.519 2732 464.519 C 3187 464.519 3643 683.481 4098 683.481 C 4553 683.481 5009 464.519 5464 464.519" fill="none" stroke="rgb(48, 151, 219)" stroke-opacity="0" stroke-width="19" transform="matrix(1,0,0,1,-515.8016357421875,0)" style="fill:none;stroke:rgb(48, 151, 219);transform:matrix(1, 0, 0, 1, -515.802, 0);;animation:none"></path>
<path d="M 0 467.036 C 455 467.036 911 680.964 1366 680.964 C 1821 680.964 2277 467.036 2732 467.036 C 3187 467.036 3643 680.964 4098 680.964 C 4553 680.964 5009 467.036 5464 467.036" fill="none" stroke="rgb(47, 152, 220)" stroke-opacity="0" stroke-width="19" transform="matrix(1,0,0,1,-520.1727905273438,0)" style="fill:none;stroke:rgb(47, 152, 220);transform:matrix(1, 0, 0, 1, -520.173, 0);;animation:none"></path>
<path d="M 0 469.577 C 455 469.577 911 678.423 1366 678.423 C 1821 678.423 2277 469.577 2732 469.577 C 3187 469.577 3643 678.423 4098 678.423 C 4553 678.423 5009 469.577 5464 469.577" fill="none" stroke="rgb(47, 152, 220)" stroke-opacity="0" stroke-width="19" transform="matrix(1,0,0,1,-524.5440063476562,0)" style="fill:none;stroke:rgb(47, 152, 220);transform:matrix(1, 0, 0, 1, -524.544, 0);;animation:none"></path>
<path d="M 0 472.142 C 455 472.142 911 675.858 1366 675.858 C 1821 675.858 2277 472.142 2732 472.142 C 3187 472.142 3643 675.858 4098 675.858 C 4553 675.858 5009 472.142 5464 472.142" fill="none" stroke="rgb(47, 153, 220)" stroke-opacity="0" stroke-width="19" transform="matrix(1,0,0,1,-528.9152221679688,0)" style="fill:none;stroke:rgb(47, 153, 220);transform:matrix(1, 0, 0, 1, -528.915, 0);;animation:none"></path>
<path d="M 0 474.731 C 455 474.731 911 673.269 1366 673.269 C 1821 673.269 2277 474.731 2732 474.731 C 3187 474.731 3643 673.269 4098 673.269 C 4553 673.269 5009 474.731 5464 474.731" fill="none" stroke="rgb(46, 153, 220)" stroke-opacity="0" stroke-width="19" transform="matrix(1,0,0,1,-533.286376953125,0)" style="fill:none;stroke:rgb(46, 153, 220);transform:matrix(1, 0, 0, 1, -533.286, 0);;animation:none"></path>
<path d="M 0 477.343 C 455 477.343 911 670.657 1366 670.657 C 1821 670.657 2277 477.343 2732 477.343 C 3187 477.343 3643 670.657 4098 670.657 C 4553 670.657 5009 477.343 5464 477.343" fill="none" stroke="rgb(46, 153, 220)" stroke-opacity="0" stroke-width="19" transform="matrix(1,0,0,1,-537.6575927734375,0)" style="fill:none;stroke:rgb(46, 153, 220);transform:matrix(1, 0, 0, 1, -537.658, 0);;animation:none"></path>
<path d="M 0 479.979 C 455 479.979 911 668.021 1366 668.021 C 1821 668.021 2277 479.979 2732 479.979 C 3187 479.979 3643 668.021 4098 668.021 C 4553 668.021 5009 479.979 5464 479.979" fill="none" stroke="rgb(46, 154, 220)" stroke-opacity="0" stroke-width="19" transform="matrix(1,0,0,1,-542.02880859375,0)" style="fill:none;stroke:rgb(46, 154, 220);transform:matrix(1, 0, 0, 1, -542.029, 0);;animation:none"></path>
<path d="M 0 482.637 C 455 482.637 911 665.363 1366 665.363 C 1821 665.363 2277 482.637 2732 482.637 C 3187 482.637 3643 665.363 4098 665.363 C 4553 665.363 5009 482.637 5464 482.637" fill="none" stroke="rgb(46, 154, 220)" stroke-opacity="0" stroke-width="19" transform="matrix(1,0,0,1,-546.4000244140625,0)" style="fill:none;stroke:rgb(46, 154, 220);transform:matrix(1, 0, 0, 1, -546.4, 0);;animation:none"></path>
<path d="M 0 485.318 C 455 485.318 911 662.682 1366 662.682 C 1821 662.682 2277 485.318 2732 485.318 C 3187 485.318 3643 662.682 4098 662.682 C 4553 662.682 5009 485.318 5464 485.318" fill="none" stroke="rgb(45, 154, 220)" stroke-opacity="0" stroke-width="19" transform="matrix(1,0,0,1,-550.7711791992188,0)" style="fill:none;stroke:rgb(45, 154, 220);transform:matrix(1, 0, 0, 1, -550.771, 0);;animation:none"></path>
<path d="M 0 488.021 C 455 488.021 911 659.979 1366 659.979 C 1821 659.979 2277 488.021 2732 488.021 C 3187 488.021 3643 659.979 4098 659.979 C 4553 659.979 5009 488.021 5464 488.021" fill="none" stroke="rgb(45, 155, 221)" stroke-opacity="0" stroke-width="19" transform="matrix(1,0,0,1,-555.1423950195312,0)" style="fill:none;stroke:rgb(45, 155, 221);transform:matrix(1, 0, 0, 1, -555.142, 0);;animation:none"></path>
<path d="M 0 490.745 C 455 490.745 911 657.255 1366 657.255 C 1821 657.255 2277 490.745 2732 490.745 C 3187 490.745 3643 657.255 4098 657.255 C 4553 657.255 5009 490.745 5464 490.745" fill="none" stroke="rgb(45, 155, 221)" stroke-opacity="0" stroke-width="19" transform="matrix(1,0,0,1,-559.5136108398438,0)" style="fill:none;stroke:rgb(45, 155, 221);transform:matrix(1, 0, 0, 1, -559.514, 0);;animation:none"></path>
<path d="M 0 493.49 C 455 493.49 911 654.51 1366 654.51 C 1821 654.51 2277 493.49 2732 493.49 C 3187 493.49 3643 654.51 4098 654.51 C 4553 654.51 5009 493.49 5464 493.49" fill="none" stroke="rgb(45, 155, 221)" stroke-opacity="0" stroke-width="19" transform="matrix(1,0,0,1,-563.8848266601562,0)" style="fill:none;stroke:rgb(45, 155, 221);transform:matrix(1, 0, 0, 1, -563.885, 0);;animation:none"></path>
<path d="M 0 496.256 C 455 496.256 911 651.744 1366 651.744 C 1821 651.744 2277 496.256 2732 496.256 C 3187 496.256 3643 651.744 4098 651.744 C 4553 651.744 5009 496.256 5464 496.256" fill="none" stroke="rgb(44, 156, 221)" stroke-opacity="0" stroke-width="19" transform="matrix(1,0,0,1,-568.2559814453125,0)" style="fill:none;stroke:rgb(44, 156, 221);transform:matrix(1, 0, 0, 1, -568.256, 0);;animation:none"></path>
<path d="M 0 499.041 C 455 499.041 911 648.959 1366 648.959 C 1821 648.959 2277 499.041 2732 499.041 C 3187 499.041 3643 648.959 4098 648.959 C 4553 648.959 5009 499.041 5464 499.041" fill="none" stroke="rgb(44, 156, 221)" stroke-opacity="0" stroke-width="19" transform="matrix(1,0,0,1,-572.627197265625,0)" style="fill:none;stroke:rgb(44, 156, 221);transform:matrix(1, 0, 0, 1, -572.627, 0);;animation:none"></path>
<path d="M 0 501.846 C 455 501.846 911 646.154 1366 646.154 C 1821 646.154 2277 501.846 2732 501.846 C 3187 501.846 3643 646.154 4098 646.154 C 4553 646.154 5009 501.846 5464 501.846" fill="none" stroke="rgb(44, 156, 221)" stroke-opacity="0" stroke-width="19" transform="matrix(1,0,0,1,-576.9984130859375,0)" style="fill:none;stroke:rgb(44, 156, 221);transform:matrix(1, 0, 0, 1, -576.998, 0);;animation:none"></path>
<path d="M 0 504.67 C 455 504.67 911 643.33 1366 643.33 C 1821 643.33 2277 504.67 2732 504.67 C 3187 504.67 3643 643.33 4098 643.33 C 4553 643.33 5009 504.67 5464 504.67" fill="none" stroke="rgb(44, 156, 221)" stroke-opacity="0" stroke-width="19" transform="matrix(1,0,0,1,-581.3695678710938,0)" style="fill:none;stroke:rgb(44, 156, 221);transform:matrix(1, 0, 0, 1, -581.37, 0);;animation:none"></path>
<path d="M 0 507.512 C 455 507.512 911 640.488 1366 640.488 C 1821 640.488 2277 507.512 2732 507.512 C 3187 507.512 3643 640.488 4098 640.488 C 4553 640.488 5009 507.512 5464 507.512" fill="none" stroke="rgb(44, 157, 221)" stroke-opacity="0" stroke-width="19" transform="matrix(1,0,0,1,-585.7407836914062,0)" style="fill:none;stroke:rgb(44, 157, 221);transform:matrix(1, 0, 0, 1, -585.741, 0);;animation:none"></path>
<path d="M 0 510.372 C 455 510.372 911 637.628 1366 637.628 C 1821 637.628 2277 510.372 2732 510.372 C 3187 510.372 3643 637.628 4098 637.628 C 4553 637.628 5009 510.372 5464 510.372" fill="none" stroke="rgb(44, 157, 221)" stroke-opacity="0" stroke-width="19" transform="matrix(1,0,0,1,-590.1119995117188,0)" style="fill:none;stroke:rgb(44, 157, 221);transform:matrix(1, 0, 0, 1, -590.112, 0);;animation:none"></path>
<path d="M 0 513.249 C 455 513.249 911 634.751 1366 634.751 C 1821 634.751 2277 513.249 2732 513.249 C 3187 513.249 3643 634.751 4098 634.751 C 4553 634.751 5009 513.249 5464 513.249" fill="none" stroke="rgb(43, 157, 221)" stroke-opacity="0" stroke-width="19" transform="matrix(1,0,0,1,-594.4832153320312,0)" style="fill:none;stroke:rgb(43, 157, 221);transform:matrix(1, 0, 0, 1, -594.483, 0);;animation:none"></path>
<path d="M 0 516.142 C 455 516.142 911 631.858 1366 631.858 C 1821 631.858 2277 516.142 2732 516.142 C 3187 516.142 3643 631.858 4098 631.858 C 4553 631.858 5009 516.142 5464 516.142" fill="none" stroke="rgb(43, 157, 221)" stroke-opacity="0.007407407407407408" stroke-width="19" transform="matrix(1,0,0,1,-598.8543701171875,0)" style="fill:none;stroke:rgb(43, 157, 221);transform:matrix(1, 0, 0, 1, -598.854, 0);;animation:none"></path>
<path d="M 0 519.051 C 455 519.051 911 628.949 1366 628.949 C 1821 628.949 2277 519.051 2732 519.051 C 3187 519.051 3643 628.949 4098 628.949 C 4553 628.949 5009 519.051 5464 519.051" fill="none" stroke="rgb(43, 157, 221)" stroke-opacity="0.014814814814814815" stroke-width="19" transform="matrix(1,0,0,1,-603.2255859375,0)" style="fill:none;stroke:rgb(43, 157, 221);transform:matrix(1, 0, 0, 1, -603.226, 0);;animation:none"></path>
<path d="M 0 521.975 C 455 521.975 911 626.025 1366 626.025 C 1821 626.025 2277 521.975 2732 521.975 C 3187 521.975 3643 626.025 4098 626.025 C 4553 626.025 5009 521.975 5464 521.975" fill="none" stroke="rgb(43, 158, 222)" stroke-opacity="0.022222222222222223" stroke-width="19" transform="matrix(1,0,0,1,-607.5968017578125,0)" style="fill:none;stroke:rgb(43, 158, 222);transform:matrix(1, 0, 0, 1, -607.597, 0);;animation:none"></path>
<path d="M 0 524.913 C 455 524.913 911 623.087 1366 623.087 C 1821 623.087 2277 524.913 2732 524.913 C 3187 524.913 3643 623.087 4098 623.087 C 4553 623.087 5009 524.913 5464 524.913" fill="none" stroke="rgb(43, 158, 222)" stroke-opacity="0.02962962962962963" stroke-width="19" transform="matrix(1,0,0,1,-611.9673461914062,0)" style="fill:none;stroke:rgb(43, 158, 222);transform:matrix(1, 0, 0, 1, -611.967, 0);;animation:none"></path>
<path d="M 0 527.865 C 455 527.865 911 620.135 1366 620.135 C 1821 620.135 2277 527.865 2732 527.865 C 3187 527.865 3643 620.135 4098 620.135 C 4553 620.135 5009 527.865 5464 527.865" fill="none" stroke="rgb(43, 158, 222)" stroke-opacity="0.037037037037037035" stroke-width="19" transform="matrix(1,0,0,1,-616.3392333984375,0)" style="fill:none;stroke:rgb(43, 158, 222);transform:matrix(1, 0, 0, 1, -616.339, 0);;animation:none"></path>
<path d="M 0 530.829 C 455 530.829 911 617.171 1366 617.171 C 1821 617.171 2277 530.829 2732 530.829 C 3187 530.829 3643 617.171 4098 617.171 C 4553 617.171 5009 530.829 5464 530.829" fill="none" stroke="rgb(43, 158, 222)" stroke-opacity="0.044444444444444446" stroke-width="19" transform="matrix(1,0,0,1,-620.709716796875,0)" style="fill:none;stroke:rgb(43, 158, 222);transform:matrix(1, 0, 0, 1, -620.71, 0);;animation:none"></path>
<path d="M 0 533.807 C 455 533.807 911 614.193 1366 614.193 C 1821 614.193 2277 533.807 2732 533.807 C 3187 533.807 3643 614.193 4098 614.193 C 4553 614.193 5009 533.807 5464 533.807" fill="none" stroke="rgb(43, 158, 222)" stroke-opacity="0.05185185185185185" stroke-width="19" transform="matrix(1,0,0,1,-625.0816040039062,0)" style="fill:none;stroke:rgb(43, 158, 222);transform:matrix(1, 0, 0, 1, -625.082, 0);;animation:none"></path>
<path d="M 0 536.795 C 455 536.795 911 611.205 1366 611.205 C 1821 611.205 2277 536.795 2732 536.795 C 3187 536.795 3643 611.205 4098 611.205 C 4553 611.205 5009 536.795 5464 536.795" fill="none" stroke="rgb(42, 158, 222)" stroke-opacity="0.05925925925925926" stroke-width="19" transform="matrix(1,0,0,1,-629.4527587890625,0)" style="fill:none;stroke:rgb(42, 158, 222);transform:matrix(1, 0, 0, 1, -629.453, 0);;animation:none"></path>
<path d="M 0 539.793 C 455 539.793 911 608.207 1366 608.207 C 1821 608.207 2277 539.793 2732 539.793 C 3187 539.793 3643 608.207 4098 608.207 C 4553 608.207 5009 539.793 5464 539.793" fill="none" stroke="rgb(42, 158, 222)" stroke-opacity="0.06666666666666667" stroke-width="19" transform="matrix(1,0,0,1,-633.8233032226562,0)" style="fill:none;stroke:rgb(42, 158, 222);transform:matrix(1, 0, 0, 1, -633.823, 0);;animation:none"></path>
<path d="M 0 542.802 C 455 542.802 911 605.198 1366 605.198 C 1821 605.198 2277 542.802 2732 542.802 C 3187 542.802 3643 605.198 4098 605.198 C 4553 605.198 5009 542.802 5464 542.802" fill="none" stroke="rgb(42, 159, 222)" stroke-opacity="0.07407407407407407" stroke-width="19" transform="matrix(1,0,0,1,-638.1951904296875,0)" style="fill:none;stroke:rgb(42, 159, 222);transform:matrix(1, 0, 0, 1, -638.195, 0);;animation:none"></path>
<path d="M 0 545.819 C 455 545.819 911 602.181 1366 602.181 C 1821 602.181 2277 545.819 2732 545.819 C 3187 545.819 3643 602.181 4098 602.181 C 4553 602.181 5009 545.819 5464 545.819" fill="none" stroke="rgb(42, 159, 222)" stroke-opacity="0.08148148148148149" stroke-width="19" transform="matrix(1,0,0,1,-642.56640625,0)" style="fill:none;stroke:rgb(42, 159, 222);transform:matrix(1, 0, 0, 1, -642.566, 0);;animation:none"></path>
<path d="M 0 548.845 C 455 548.845 911 599.155 1366 599.155 C 1821 599.155 2277 548.845 2732 548.845 C 3187 548.845 3643 599.155 4098 599.155 C 4553 599.155 5009 548.845 5464 548.845" fill="none" stroke="rgb(42, 159, 222)" stroke-opacity="0.08888888888888889" stroke-width="19" transform="matrix(1,0,0,1,-646.9376220703125,0)" style="fill:none;stroke:rgb(42, 159, 222);transform:matrix(1, 0, 0, 1, -646.938, 0);;animation:none"></path>
<path d="M 0 551.877 C 455 551.877 911 596.123 1366 596.123 C 1821 596.123 2277 551.877 2732 551.877 C 3187 551.877 3643 596.123 4098 596.123 C 4553 596.123 5009 551.877 5464 551.877" fill="none" stroke="rgb(42, 159, 222)" stroke-opacity="0.0962962962962963" stroke-width="19" transform="matrix(1,0,0,1,-651.3087768554688,0)" style="fill:none;stroke:rgb(42, 159, 222);transform:matrix(1, 0, 0, 1, -651.309, 0);;animation:none"></path>
<path d="M 0 554.916 C 455 554.916 911 593.084 1366 593.084 C 1821 593.084 2277 554.916 2732 554.916 C 3187 554.916 3643 593.084 4098 593.084 C 4553 593.084 5009 554.916 5464 554.916" fill="none" stroke="rgb(42, 159, 222)" stroke-opacity="0.1037037037037037" stroke-width="19" transform="matrix(1,0,0,1,-655.6799926757812,0)" style="fill:none;stroke:rgb(42, 159, 222);transform:matrix(1, 0, 0, 1, -655.68, 0);;animation:none"></path>
<path d="M 0 557.961 C 455 557.961 911 590.039 1366 590.039 C 1821 590.039 2277 557.961 2732 557.961 C 3187 557.961 3643 590.039 4098 590.039 C 4553 590.039 5009 557.961 5464 557.961" fill="none" stroke="rgb(42, 159, 222)" stroke-opacity="0.1111111111111111" stroke-width="19" transform="matrix(1,0,0,1,-660.0512084960938,0)" style="fill:none;stroke:rgb(42, 159, 222);transform:matrix(1, 0, 0, 1, -660.051, 0);;animation:none"></path>
<path d="M 0 561.01 C 455 561.01 911 586.99 1366 586.99 C 1821 586.99 2277 561.01 2732 561.01 C 3187 561.01 3643 586.99 4098 586.99 C 4553 586.99 5009 561.01 5464 561.01" fill="none" stroke="rgb(42, 159, 222)" stroke-opacity="0.11851851851851852" stroke-width="19" transform="matrix(1,0,0,1,-664.4224243164062,0)" style="fill:none;stroke:rgb(42, 159, 222);transform:matrix(1, 0, 0, 1, -664.422, 0);;animation:none"></path>
<path d="M 0 564.063 C 455 564.063 911 583.937 1366 583.937 C 1821 583.937 2277 564.063 2732 564.063 C 3187 564.063 3643 583.937 4098 583.937 C 4553 583.937 5009 564.063 5464 564.063" fill="none" stroke="rgb(42, 159, 222)" stroke-opacity="0.1259259259259259" stroke-width="19" transform="matrix(1,0,0,1,-668.7935791015625,0)" style="fill:none;stroke:rgb(42, 159, 222);transform:matrix(1, 0, 0, 1, -668.794, 0);;animation:none"></path>
<path d="M 0 567.118 C 455 567.118 911 580.881 1366 580.881 C 1821 580.881 2277 567.118 2732 567.118 C 3187 567.118 3643 580.881 4098 580.881 C 4553 580.881 5009 567.118 5464 567.118" fill="none" stroke="rgb(42, 159, 222)" stroke-opacity="0.13333333333333333" stroke-width="19" transform="matrix(1,0,0,1,-673.164794921875,0)" style="fill:none;stroke:rgb(42, 159, 222);transform:matrix(1, 0, 0, 1, -673.165, 0);;animation:none"></path>
<path d="M 0 570.176 C 455 570.176 911 577.824 1366 577.824 C 1821 577.824 2277 570.176 2732 570.176 C 3187 570.176 3643 577.824 4098 577.824 C 4553 577.824 5009 570.176 5464 570.176" fill="none" stroke="rgb(42, 159, 222)" stroke-opacity="0.14074074074074075" stroke-width="19" transform="matrix(1,0,0,1,-677.5360107421875,0)" style="fill:none;stroke:rgb(42, 159, 222);transform:matrix(1, 0, 0, 1, -677.536, 0);;animation:none"></path>
<path d="M 0 573.235 C 455 573.235 911 574.765 1366 574.765 C 1821 574.765 2277 573.235 2732 573.235 C 3187 573.235 3643 574.765 4098 574.765 C 4553 574.765 5009 573.235 5464 573.235" fill="none" stroke="rgb(42, 159, 222)" stroke-opacity="0.14814814814814814" stroke-width="19" transform="matrix(1,0,0,1,-681.9071655273438,0)" style="fill:none;stroke:rgb(42, 159, 222);transform:matrix(1, 0, 0, 1, -681.907, 0);;animation:none"></path>
<path d="M 0 576.294 C 455 576.294 911 571.706 1366 571.706 C 1821 571.706 2277 576.294 2732 576.294 C 3187 576.294 3643 571.706 4098 571.706 C 4553 571.706 5009 576.294 5464 576.294" fill="none" stroke="rgb(42, 159, 222)" stroke-opacity="0.15555555555555556" stroke-width="19" transform="matrix(1,0,0,1,-686.2783813476562,0)" style="fill:none;stroke:rgb(42, 159, 222);transform:matrix(1, 0, 0, 1, -686.278, 0);;animation:none"></path>
<path d="M 0 579.353 C 455 579.353 911 568.647 1366 568.647 C 1821 568.647 2277 579.353 2732 579.353 C 3187 579.353 3643 568.647 4098 568.647 C 4553 568.647 5009 579.353 5464 579.353" fill="none" stroke="rgb(42, 159, 222)" stroke-opacity="0.16296296296296298" stroke-width="19" transform="matrix(1,0,0,1,-690.6495361328125,0)" style="fill:none;stroke:rgb(42, 159, 222);transform:matrix(1, 0, 0, 1, -690.65, 0);;animation:none"></path>
<path d="M 0 582.41 C 455 582.41 911 565.59 1366 565.59 C 1821 565.59 2277 582.41 2732 582.41 C 3187 582.41 3643 565.59 4098 565.59 C 4553 565.59 5009 582.41 5464 582.41" fill="none" stroke="rgb(42, 159, 222)" stroke-opacity="0.17037037037037037" stroke-width="19" transform="matrix(1,0,0,1,-695.0208129882812,0)" style="fill:none;stroke:rgb(42, 159, 222);transform:matrix(1, 0, 0, 1, -695.021, 0);;animation:none"></path>
<path d="M 0 585.464 C 455 585.464 911 562.536 1366 562.536 C 1821 562.536 2277 585.464 2732 585.464 C 3187 585.464 3643 562.536 4098 562.536 C 4553 562.536 5009 585.464 5464 585.464" fill="none" stroke="rgb(42, 159, 222)" stroke-opacity="0.17777777777777778" stroke-width="19" transform="matrix(1,0,0,1,-699.3920288085938,0)" style="fill:none;stroke:rgb(42, 159, 222);transform:matrix(1, 0, 0, 1, -699.392, 0);;animation:none"></path>
<path d="M 0 588.515 C 455 588.515 911 559.485 1366 559.485 C 1821 559.485 2277 588.515 2732 588.515 C 3187 588.515 3643 559.485 4098 559.485 C 4553 559.485 5009 588.515 5464 588.515" fill="none" stroke="rgb(42, 159, 222)" stroke-opacity="0.18518518518518517" stroke-width="19" transform="matrix(1,0,0,1,-703.7632446289062,0)" style="fill:none;stroke:rgb(42, 159, 222);transform:matrix(1, 0, 0, 1, -703.763, 0);;animation:none"></path>
<path d="M 0 591.562 C 455 591.562 911 556.438 1366 556.438 C 1821 556.438 2277 591.562 2732 591.562 C 3187 591.562 3643 556.438 4098 556.438 C 4553 556.438 5009 591.562 5464 591.562" fill="none" stroke="rgb(42, 159, 222)" stroke-opacity="0.1925925925925926" stroke-width="19" transform="matrix(1,0,0,1,-708.1343994140625,0)" style="fill:none;stroke:rgb(42, 159, 222);transform:matrix(1, 0, 0, 1, -708.134, 0);;animation:none"></path>
<path d="M 0 594.604 C 455 594.604 911 553.396 1366 553.396 C 1821 553.396 2277 594.604 2732 594.604 C 3187 594.604 3643 553.396 4098 553.396 C 4553 553.396 5009 594.604 5464 594.604" fill="none" stroke="rgb(42, 159, 222)" stroke-opacity="0.2" stroke-width="19" transform="matrix(1,0,0,1,-712.5048828125,0)" style="fill:none;stroke:rgb(42, 159, 222);transform:matrix(1, 0, 0, 1, -712.505, 0);;animation:none"></path>
<path d="M 0 597.64 C 455 597.64 911 550.36 1366 550.36 C 1821 550.36 2277 597.64 2732 597.64 C 3187 597.64 3643 550.36 4098 550.36 C 4553 550.36 5009 597.64 5464 597.64" fill="none" stroke="rgb(42, 159, 222)" stroke-opacity="0.2074074074074074" stroke-width="19" transform="matrix(1,0,0,1,-716.8761596679688,0)" style="fill:none;stroke:rgb(42, 159, 222);transform:matrix(1, 0, 0, 1, -716.876, 0);;animation:none"></path>
<path d="M 0 600.669 C 455 600.669 911 547.331 1366 547.331 C 1821 547.331 2277 600.669 2732 600.669 C 3187 600.669 3643 547.331 4098 547.331 C 4553 547.331 5009 600.669 5464 600.669" fill="none" stroke="rgb(42, 159, 222)" stroke-opacity="0.21481481481481482" stroke-width="19" transform="matrix(1,0,0,1,-721.2479858398438,0)" style="fill:none;stroke:rgb(42, 159, 222);transform:matrix(1, 0, 0, 1, -721.248, 0);;animation:none"></path>
<path d="M 0 603.69 C 455 603.69 911 544.309 1366 544.309 C 1821 544.309 2277 603.69 2732 603.69 C 3187 603.69 3643 544.309 4098 544.309 C 4553 544.309 5009 603.69 5464 603.69" fill="none" stroke="rgb(42, 159, 222)" stroke-opacity="0.2222222222222222" stroke-width="19" transform="matrix(1,0,0,1,-725.6192016601562,0)" style="fill:none;stroke:rgb(42, 159, 222);transform:matrix(1, 0, 0, 1, -725.619, 0);;animation:none"></path>
<path d="M 0 606.703 C 455 606.703 911 541.297 1366 541.297 C 1821 541.297 2277 606.703 2732 606.703 C 3187 606.703 3643 541.297 4098 541.297 C 4553 541.297 5009 606.703 5464 606.703" fill="none" stroke="rgb(42, 159, 222)" stroke-opacity="0.22962962962962963" stroke-width="19" transform="matrix(1,0,0,1,-729.9903564453125,0)" style="fill:none;stroke:rgb(42, 159, 222);transform:matrix(1, 0, 0, 1, -729.99, 0);;animation:none"></path>
<path d="M 0 609.707 C 455 609.707 911 538.293 1366 538.293 C 1821 538.293 2277 609.707 2732 609.707 C 3187 609.707 3643 538.293 4098 538.293 C 4553 538.293 5009 609.707 5464 609.707" fill="none" stroke="rgb(42, 160, 221)" stroke-opacity="0.23703703703703705" stroke-width="19" transform="matrix(1,0,0,1,-734.361572265625,0)" style="fill:none;stroke:rgb(42, 160, 221);transform:matrix(1, 0, 0, 1, -734.362, 0);;animation:none"></path>
<path d="M 0 612.701 C 455 612.701 911 535.299 1366 535.299 C 1821 535.299 2277 612.701 2732 612.701 C 3187 612.701 3643 535.299 4098 535.299 C 4553 535.299 5009 612.701 5464 612.701" fill="none" stroke="rgb(42, 160, 221)" stroke-opacity="0.24444444444444444" stroke-width="19" transform="matrix(1,0,0,1,-738.7327880859375,0)" style="fill:none;stroke:rgb(42, 160, 221);transform:matrix(1, 0, 0, 1, -738.733, 0);;animation:none"></path>
<path d="M 0 615.683 C 455 615.683 911 532.317 1366 532.317 C 1821 532.317 2277 615.683 2732 615.683 C 3187 615.683 3643 532.317 4098 532.317 C 4553 532.317 5009 615.683 5464 615.683" fill="none" stroke="rgb(42, 160, 221)" stroke-opacity="0.2518518518518518" stroke-width="19" transform="matrix(1,0,0,1,-743.1040649414062,0)" style="fill:none;stroke:rgb(42, 160, 221);transform:matrix(1, 0, 0, 1, -743.104, 0);;animation:none"></path>
<path d="M 0 618.654 C 455 618.654 911 529.346 1366 529.346 C 1821 529.346 2277 618.654 2732 618.654 C 3187 618.654 3643 529.346 4098 529.346 C 4553 529.346 5009 618.654 5464 618.654" fill="none" stroke="rgb(42, 160, 221)" stroke-opacity="0.25925925925925924" stroke-width="19" transform="matrix(1,0,0,1,-747.4752197265625,0)" style="fill:none;stroke:rgb(42, 160, 221);transform:matrix(1, 0, 0, 1, -747.475, 0);;animation:none"></path>
<path d="M 0 621.612 C 455 621.612 911 526.388 1366 526.388 C 1821 526.388 2277 621.612 2732 621.612 C 3187 621.612 3643 526.388 4098 526.388 C 4553 526.388 5009 621.612 5464 621.612" fill="none" stroke="rgb(42, 160, 221)" stroke-opacity="0.26666666666666666" stroke-width="19" transform="matrix(1,0,0,1,-751.846435546875,0)" style="fill:none;stroke:rgb(42, 160, 221);transform:matrix(1, 0, 0, 1, -751.846, 0);;animation:none"></path>
<path d="M 0 624.558 C 455 624.558 911 523.442 1366 523.442 C 1821 523.442 2277 624.558 2732 624.558 C 3187 624.558 3643 523.442 4098 523.442 C 4553 523.442 5009 624.558 5464 624.558" fill="none" stroke="rgb(42, 160, 221)" stroke-opacity="0.2740740740740741" stroke-width="19" transform="matrix(1,0,0,1,-756.2175903320312,0)" style="fill:none;stroke:rgb(42, 160, 221);transform:matrix(1, 0, 0, 1, -756.218, 0);;animation:none"></path>
<path d="M 0 627.489 C 455 627.489 911 520.511 1366 520.511 C 1821 520.511 2277 627.489 2732 627.489 C 3187 627.489 3643 520.511 4098 520.511 C 4553 520.511 5009 627.489 5464 627.489" fill="none" stroke="rgb(42, 160, 221)" stroke-opacity="0.2814814814814815" stroke-width="19" transform="matrix(1,0,0,1,-760.5888061523438,0)" style="fill:none;stroke:rgb(42, 160, 221);transform:matrix(1, 0, 0, 1, -760.589, 0);;animation:none"></path>
<path d="M 0 630.405 C 455 630.405 911 517.595 1366 517.595 C 1821 517.595 2277 630.405 2732 630.405 C 3187 630.405 3643 517.595 4098 517.595 C 4553 517.595 5009 630.405 5464 630.405" fill="none" stroke="rgb(42, 160, 221)" stroke-opacity="0.28888888888888886" stroke-width="19" transform="matrix(1,0,0,1,-764.9600219726562,0)" style="fill:none;stroke:rgb(42, 160, 221);transform:matrix(1, 0, 0, 1, -764.96, 0);;animation:none"></path>
<path d="M 0 633.306 C 455 633.306 911 514.694 1366 514.694 C 1821 514.694 2277 633.306 2732 633.306 C 3187 633.306 3643 514.694 4098 514.694 C 4553 514.694 5009 633.306 5464 633.306" fill="none" stroke="rgb(42, 161, 220)" stroke-opacity="0.2962962962962963" stroke-width="19" transform="matrix(1,0,0,1,-769.3311767578125,0)" style="fill:none;stroke:rgb(42, 161, 220);transform:matrix(1, 0, 0, 1, -769.331, 0);;animation:none"></path>
<path d="M 0 636.192 C 455 636.192 911 511.808 1366 511.808 C 1821 511.808 2277 636.192 2732 636.192 C 3187 636.192 3643 511.808 4098 511.808 C 4553 511.808 5009 636.192 5464 636.192" fill="none" stroke="rgb(42, 161, 220)" stroke-opacity="0.3037037037037037" stroke-width="19" transform="matrix(1,0,0,1,-773.702392578125,0)" style="fill:none;stroke:rgb(42, 161, 220);transform:matrix(1, 0, 0, 1, -773.702, 0);;animation:none"></path>
<path d="M 0 639.06 C 455 639.06 911 508.94 1366 508.94 C 1821 508.94 2277 639.06 2732 639.06 C 3187 639.06 3643 508.94 4098 508.94 C 4553 508.94 5009 639.06 5464 639.06" fill="none" stroke="rgb(42, 161, 220)" stroke-opacity="0.3111111111111111" stroke-width="19" transform="matrix(1,0,0,1,-778.0736083984375,0)" style="fill:none;stroke:rgb(42, 161, 220);transform:matrix(1, 0, 0, 1, -778.074, 0);;animation:none"></path>
<path d="M 0 641.911 C 455 641.911 911 506.089 1366 506.089 C 1821 506.089 2277 641.911 2732 641.911 C 3187 641.911 3643 506.089 4098 506.089 C 4553 506.089 5009 641.911 5464 641.911" fill="none" stroke="rgb(42, 161, 220)" stroke-opacity="0.31851851851851853" stroke-width="19" transform="matrix(1,0,0,1,-782.4447631835938,0)" style="fill:none;stroke:rgb(42, 161, 220);transform:matrix(1, 0, 0, 1, -782.445, 0);;animation:none"></path>
<path d="M 0 644.744 C 455 644.744 911 503.256 1366 503.256 C 1821 503.256 2277 644.744 2732 644.744 C 3187 644.744 3643 503.256 4098 503.256 C 4553 503.256 5009 644.744 5464 644.744" fill="none" stroke="rgb(42, 161, 220)" stroke-opacity="0.32592592592592595" stroke-width="19" transform="matrix(1,0,0,1,-786.8159790039062,0)" style="fill:none;stroke:rgb(42, 161, 220);transform:matrix(1, 0, 0, 1, -786.816, 0);;animation:none"></path>
<path d="M 0 647.559 C 455 647.559 911 500.441 1366 500.441 C 1821 500.441 2277 647.559 2732 647.559 C 3187 647.559 3643 500.441 4098 500.441 C 4553 500.441 5009 647.559 5464 647.559" fill="none" stroke="rgb(42, 162, 219)" stroke-opacity="0.3333333333333333" stroke-width="19" transform="matrix(1,0,0,1,-791.187255859375,0)" style="fill:none;stroke:rgb(42, 162, 219);transform:matrix(1, 0, 0, 1, -791.187, 0);;animation:none"></path>
<path d="M 0 650.354 C 455 650.354 911 497.646 1366 497.646 C 1821 497.646 2277 650.354 2732 650.354 C 3187 650.354 3643 497.646 4098 497.646 C 4553 497.646 5009 650.354 5464 650.354" fill="none" stroke="rgb(42, 162, 219)" stroke-opacity="0.34074074074074073" stroke-width="19" transform="matrix(1,0,0,1,-795.5584106445312,0)" style="fill:none;stroke:rgb(42, 162, 219);transform:matrix(1, 0, 0, 1, -795.558, 0);;animation:none"></path>
<path d="M 0 653.13 C 455 653.13 911 494.87 1366 494.87 C 1821 494.87 2277 653.13 2732 653.13 C 3187 653.13 3643 494.87 4098 494.87 C 4553 494.87 5009 653.13 5464 653.13" fill="none" stroke="rgb(42, 162, 219)" stroke-opacity="0.34814814814814815" stroke-width="19" transform="matrix(1,0,0,1,-799.9296264648438,0)" style="fill:none;stroke:rgb(42, 162, 219);transform:matrix(1, 0, 0, 1, -799.93, 0);;animation:none"></path>
<path d="M 0 655.885 C 455 655.885 911 492.115 1366 492.115 C 1821 492.115 2277 655.885 2732 655.885 C 3187 655.885 3643 492.115 4098 492.115 C 4553 492.115 5009 655.885 5464 655.885" fill="none" stroke="rgb(42, 162, 219)" stroke-opacity="0.35555555555555557" stroke-width="19" transform="matrix(1,0,0,1,-804.3008422851562,0)" style="fill:none;stroke:rgb(42, 162, 219);transform:matrix(1, 0, 0, 1, -804.301, 0);;animation:none"></path>
<path d="M 0 658.62 C 455 658.62 911 489.38 1366 489.38 C 1821 489.38 2277 658.62 2732 658.62 C 3187 658.62 3643 489.38 4098 489.38 C 4553 489.38 5009 658.62 5464 658.62" fill="none" stroke="rgb(42, 163, 218)" stroke-opacity="0.362962962962963" stroke-width="19" transform="matrix(1,0,0,1,-808.6719970703125,0)" style="fill:none;stroke:rgb(42, 163, 218);transform:matrix(1, 0, 0, 1, -808.672, 0);;animation:none"></path>
<path d="M 0 661.333 C 455 661.333 911 486.667 1366 486.667 C 1821 486.667 2277 661.333 2732 661.333 C 3187 661.333 3643 486.667 4098 486.667 C 4553 486.667 5009 661.333 5464 661.333" fill="none" stroke="rgb(41, 163, 218)" stroke-opacity="0.37037037037037035" stroke-width="19" transform="matrix(1,0,0,1,-813.043212890625,0)" style="fill:none;stroke:rgb(41, 163, 218);transform:matrix(1, 0, 0, 1, -813.043, 0);;animation:none"></path>
<path d="M 0 664.025 C 455 664.025 911 483.975 1366 483.975 C 1821 483.975 2277 664.025 2732 664.025 C 3187 664.025 3643 483.975 4098 483.975 C 4553 483.975 5009 664.025 5464 664.025" fill="none" stroke="rgb(41, 163, 218)" stroke-opacity="0.37777777777777777" stroke-width="19" transform="matrix(1,0,0,1,-817.4143676757812,0)" style="fill:none;stroke:rgb(41, 163, 218);transform:matrix(1, 0, 0, 1, -817.414, 0);;animation:none"></path>
<path d="M 0 666.695 C 455 666.695 911 481.305 1366 481.305 C 1821 481.305 2277 666.695 2732 666.695 C 3187 666.695 3643 481.305 4098 481.305 C 4553 481.305 5009 666.695 5464 666.695" fill="none" stroke="rgb(41, 164, 217)" stroke-opacity="0.3851851851851852" stroke-width="19" transform="matrix(1,0,0,1,-821.7855834960938,0)" style="fill:none;stroke:rgb(41, 164, 217);transform:matrix(1, 0, 0, 1, -821.786, 0);;animation:none"></path>
<path d="M 0 669.342 C 455 669.342 911 478.658 1366 478.658 C 1821 478.658 2277 669.342 2732 669.342 C 3187 669.342 3643 478.658 4098 478.658 C 4553 478.658 5009 669.342 5464 669.342" fill="none" stroke="rgb(41, 164, 217)" stroke-opacity="0.3925925925925926" stroke-width="19" transform="matrix(1,0,0,1,-826.1567993164062,0)" style="fill:none;stroke:rgb(41, 164, 217);transform:matrix(1, 0, 0, 1, -826.157, 0);;animation:none"></path>
<path d="M 0 671.966 C 455 671.966 911 476.034 1366 476.034 C 1821 476.034 2277 671.966 2732 671.966 C 3187 671.966 3643 476.034 4098 476.034 C 4553 476.034 5009 671.966 5464 671.966" fill="none" stroke="rgb(41, 164, 217)" stroke-opacity="0.4" stroke-width="19" transform="matrix(1,0,0,1,-830.5279541015625,0)" style="fill:none;stroke:rgb(41, 164, 217);transform:matrix(1, 0, 0, 1, -830.528, 0);;animation:none"></path>
<path d="M 0 674.567 C 455 674.567 911 473.433 1366 473.433 C 1821 473.433 2277 674.567 2732 674.567 C 3187 674.567 3643 473.433 4098 473.433 C 4553 473.433 5009 674.567 5464 674.567" fill="none" stroke="rgb(41, 165, 216)" stroke-opacity="0.4074074074074074" stroke-width="19" transform="matrix(1,0,0,1,-834.899169921875,0)" style="fill:none;stroke:rgb(41, 165, 216);transform:matrix(1, 0, 0, 1, -834.899, 0);;animation:none"></path>
<path d="M 0 677.144 C 455 677.144 911 470.856 1366 470.856 C 1821 470.856 2277 677.144 2732 677.144 C 3187 677.144 3643 470.856 4098 470.856 C 4553 470.856 5009 677.144 5464 677.144" fill="none" stroke="rgb(41, 165, 216)" stroke-opacity="0.4148148148148148" stroke-width="19" transform="matrix(1,0,0,1,-839.2704467773438,0)" style="fill:none;stroke:rgb(41, 165, 216);transform:matrix(1, 0, 0, 1, -839.27, 0);;animation:none"></path>
<path d="M 0 679.697 C 455 679.697 911 468.303 1366 468.303 C 1821 468.303 2277 679.697 2732 679.697 C 3187 679.697 3643 468.303 4098 468.303 C 4553 468.303 5009 679.697 5464 679.697" fill="none" stroke="rgb(41, 165, 216)" stroke-opacity="0.4222222222222222" stroke-width="19" transform="matrix(1,0,0,1,-843.6416625976562,0)" style="fill:none;stroke:rgb(41, 165, 216);transform:matrix(1, 0, 0, 1, -843.642, 0);;animation:none"></path>
<path d="M 0 682.225 C 455 682.225 911 465.775 1366 465.775 C 1821 465.775 2277 682.225 2732 682.225 C 3187 682.225 3643 465.775 4098 465.775 C 4553 465.775 5009 682.225 5464 682.225" fill="none" stroke="rgb(41, 166, 215)" stroke-opacity="0.42962962962962964" stroke-width="19" transform="matrix(1,0,0,1,-848.0128173828125,0)" style="fill:none;stroke:rgb(41, 166, 215);transform:matrix(1, 0, 0, 1, -848.013, 0);;animation:none"></path>
<path d="M 0 684.729 C 455 684.729 911 463.271 1366 463.271 C 1821 463.271 2277 684.729 2732 684.729 C 3187 684.729 3643 463.271 4098 463.271 C 4553 463.271 5009 684.729 5464 684.729" fill="none" stroke="rgb(41, 166, 215)" stroke-opacity="0.43703703703703706" stroke-width="19" transform="matrix(1,0,0,1,-852.384033203125,0)" style="fill:none;stroke:rgb(41, 166, 215);transform:matrix(1, 0, 0, 1, -852.384, 0);;animation:none"></path>
<path d="M 0 687.209 C 455 687.209 911 460.791 1366 460.791 C 1821 460.791 2277 687.209 2732 687.209 C 3187 687.209 3643 460.791 4098 460.791 C 4553 460.791 5009 687.209 5464 687.209" fill="none" stroke="rgb(41, 167, 214)" stroke-opacity="0.4444444444444444" stroke-width="19" transform="matrix(1,0,0,1,-856.7551879882812,0)" style="fill:none;stroke:rgb(41, 167, 214);transform:matrix(1, 0, 0, 1, -856.755, 0);;animation:none"></path>
<path d="M 0 689.663 C 455 689.663 911 458.338 1366 458.338 C 1821 458.338 2277 689.663 2732 689.663 C 3187 689.663 3643 458.338 4098 458.338 C 4553 458.338 5009 689.663 5464 689.663" fill="none" stroke="rgb(41, 167, 214)" stroke-opacity="0.45185185185185184" stroke-width="19" transform="matrix(1,0,0,1,-861.1264038085938,0)" style="fill:none;stroke:rgb(41, 167, 214);transform:matrix(1, 0, 0, 1, -861.126, 0);;animation:none"></path>
<path d="M 0 692.091 C 455 692.091 911 455.909 1366 455.909 C 1821 455.909 2277 692.091 2732 692.091 C 3187 692.091 3643 455.909 4098 455.909 C 4553 455.909 5009 692.091 5464 692.091" fill="none" stroke="rgb(41, 167, 214)" stroke-opacity="0.45925925925925926" stroke-width="19" transform="matrix(1,0,0,1,-865.4976196289062,0)" style="fill:none;stroke:rgb(41, 167, 214);transform:matrix(1, 0, 0, 1, -865.498, 0);;animation:none"></path>
<path d="M 0 694.494 C 455 694.494 911 453.506 1366 453.506 C 1821 453.506 2277 694.494 2732 694.494 C 3187 694.494 3643 453.506 4098 453.506 C 4553 453.506 5009 694.494 5464 694.494" fill="none" stroke="rgb(41, 168, 213)" stroke-opacity="0.4666666666666667" stroke-width="19" transform="matrix(1,0,0,1,-869.8687744140625,0)" style="fill:none;stroke:rgb(41, 168, 213);transform:matrix(1, 0, 0, 1, -869.869, 0);;animation:none"></path>
<g></g></g><!-- [ldio] generated by https://loading.io --></svg>