<svg id="visual" viewBox="0 0 900 600" width="900" height="600" xmlns="http://www.w3.org/2000/svg" xmlns:xlink="http://www.w3.org/1999/xlink" version="1.1"><rect x="0" y="0" width="900" height="600" fill="#002233"></rect><path d="M0 382L13.7 389C27.3 396 54.7 410 82 404C109.3 398 136.7 372 163.8 368.3C191 364.7 218 383.3 245.2 396.2C272.3 409 299.7 416 327 414.2C354.3 412.3 381.7 401.7 409 388.3C436.3 375 463.7 359 491 367C518.3 375 545.7 407 573 411.7C600.3 416.3 627.7 393.7 654.8 394.8C682 396 709 421 736.2 429.3C763.3 437.7 790.7 429.3 818 421.8C845.3 414.3 872.7 407.7 886.3 404.3L900 401L900 601L886.3 601C872.7 601 845.3 601 818 601C790.7 601 763.3 601 736.2 601C709 601 682 601 654.8 601C627.7 601 600.3 601 573 601C545.7 601 518.3 601 491 601C463.7 601 436.3 601 409 601C381.7 601 354.3 601 327 601C299.7 601 272.3 601 245.2 601C218 601 191 601 163.8 601C136.7 601 109.3 601 82 601C54.7 601 27.3 601 13.7 601L0 601Z" fill="#0066FF" stroke-linecap="round" stroke-linejoin="miter"></path></svg>